<?xml version="1.0" encoding="UTF-8"?>
<svg id="Layer_1" data-name="Layer 1" xmlns="http://www.w3.org/2000/svg" viewBox="0 0 48.52 48.52">
  <defs>
    <style>
      .cls-1 {
        fill: none;
        stroke: #8390f2;
        stroke-linecap: round;
        stroke-linejoin: round;
        stroke-width: 3px;
      }
    </style>
  </defs>
  <path class="cls-1" d="M17.43,24.26l4.55,4.55,10.24-10.24M37.69,8.32c.47,1.13,1.37,2.03,2.5,2.5l3.97,1.65c1.13.47,2.03,1.37,2.5,2.5.47,1.13.47,2.41,0,3.54l-1.64,3.97c-.47,1.13-.47,2.41,0,3.54l1.64,3.97c.23.56.35,1.16.35,1.77s-.12,1.21-.35,1.77c-.23.56-.57,1.07-1,1.5-.43.43-.94.77-1.5,1l-3.97,1.64c-1.13.47-2.03,1.37-2.5,2.5l-1.65,3.97c-.47,1.13-1.37,2.03-2.5,2.5-1.13.47-2.41.47-3.54,0l-3.97-1.64c-1.13-.47-2.41-.47-3.54,0l-3.97,1.64c-1.13.47-2.41.47-3.54,0-1.13-.47-2.03-1.37-2.5-2.5l-1.65-3.97c-.47-1.13-1.37-2.03-2.5-2.51l-3.97-1.65c-1.13-.47-2.03-1.37-2.5-2.5-.47-1.13-.47-2.41,0-3.54l1.64-3.97c.47-1.13.47-2.41,0-3.54l-1.64-3.98c-.23-.56-.35-1.16-.35-1.77s.12-1.21.35-1.77c.23-.56.57-1.07,1-1.5.43-.43.94-.77,1.5-1l3.97-1.64c1.13-.47,2.03-1.37,2.5-2.5l1.65-3.97c.47-1.13,1.37-2.03,2.5-2.5,1.13-.47,2.41-.47,3.54,0l3.97,1.64c1.13.47,2.41.47,3.54,0l3.97-1.64c1.13-.47,2.41-.47,3.54,0,1.13.47,2.03,1.37,2.5,2.5l1.65,3.97h0Z"/>
</svg>