<?xml version="1.0" encoding="UTF-8"?>
<svg id="Layer_1" xmlns="http://www.w3.org/2000/svg" xmlns:xlink="http://www.w3.org/1999/xlink" version="1.1" viewBox="0 0 276.9 208.8">
  <!-- Generator: Adobe Illustrator 30.0.0, SVG Export Plug-In . SVG Version: 2.1.1 Build 123)  -->
  <defs>
    <style>
      .st0 {
        fill: url(#linear-gradient2);
      }

      .st1 {
        fill: url(#linear-gradient1);
      }

      .st2 {
        fill: url(#linear-gradient9);
      }

      .st3 {
        fill: url(#linear-gradient3);
      }

      .st4 {
        fill: url(#linear-gradient6);
      }

      .st5 {
        fill: url(#linear-gradient8);
      }

      .st6 {
        fill: url(#linear-gradient7);
      }

      .st7 {
        fill: url(#linear-gradient5);
      }

      .st8 {
        fill: url(#linear-gradient4);
      }

      .st9 {
        fill: url(#linear-gradient10);
      }

      .st10 {
        fill: url(#linear-gradient);
      }

      .st11 {
        isolation: isolate;
      }

      .st12 {
        fill: #b7c0eb;
      }

      .st13 {
        fill: #eff1fe;
      }
    </style>
    <linearGradient id="linear-gradient" x1="-729" y1="-867.3" x2="-724.1" y2="-867.3" gradientTransform="translate(1193 -1131.3) scale(1.4 -1.4)" gradientUnits="userSpaceOnUse">
      <stop offset="0" stop-color="#e4e7fb"/>
      <stop offset="1" stop-color="#e4e7fb"/>
    </linearGradient>
    <linearGradient id="linear-gradient1" x1="-838.6" y1="-867.3" x2="-833.6" y2="-867.3" gradientTransform="translate(1193 -1131.3) scale(1.4 -1.4)" gradientUnits="userSpaceOnUse">
      <stop offset="0" stop-color="#e4e7fb"/>
      <stop offset="1" stop-color="#e4e7fb"/>
    </linearGradient>
    <linearGradient id="linear-gradient2" x1="-698.1" y1="-907.9" x2="-678.7" y2="-907.9" gradientTransform="translate(1193 -1131.3) scale(1.4 -1.4)" gradientUnits="userSpaceOnUse">
      <stop offset="0" stop-color="#e4e7fb"/>
      <stop offset="1" stop-color="#e4e7fb"/>
    </linearGradient>
    <linearGradient id="linear-gradient3" x1="-831" y1="-899.7" x2="-731.1" y2="-899.7" gradientTransform="translate(1193 -1131.3) scale(1.4 -1.4)" gradientUnits="userSpaceOnUse">
      <stop offset="0" stop-color="#b7c0eb"/>
      <stop offset=".5" stop-color="#e4e7fb"/>
      <stop offset="1" stop-color="#e4e7fb"/>
    </linearGradient>
    <linearGradient id="linear-gradient4" x1="-883.6" y1="-907.9" x2="-864" y2="-907.9" gradientTransform="translate(1193 -1131.3) scale(1.4 -1.4)" gradientUnits="userSpaceOnUse">
      <stop offset="0" stop-color="#e4e7fb"/>
      <stop offset="1" stop-color="#e4e7fb"/>
    </linearGradient>
    <linearGradient id="linear-gradient5" x1="-693.3" y1="-936.9" x2="-678.5" y2="-936.9" gradientTransform="translate(1193 -1131.3) scale(1.4 -1.4)" gradientUnits="userSpaceOnUse">
      <stop offset="0" stop-color="#eff1fe"/>
      <stop offset="1" stop-color="#e4e7fb"/>
    </linearGradient>
    <linearGradient id="linear-gradient6" x1="-728.5" y1="-950.7" x2="-693.2" y2="-950.7" gradientTransform="translate(1193 -1131.3) scale(1.4 -1.4)" gradientUnits="userSpaceOnUse">
      <stop offset="0" stop-color="#e4e7fb"/>
      <stop offset="1" stop-color="#e4e7fb"/>
    </linearGradient>
    <linearGradient id="linear-gradient7" x1="-868.6" y1="-950.7" x2="-833.1" y2="-950.7" gradientTransform="translate(1193 -1131.3) scale(1.4 -1.4)" gradientUnits="userSpaceOnUse">
      <stop offset="0" stop-color="#e4e7fb"/>
      <stop offset="1" stop-color="#e4e7fb"/>
    </linearGradient>
    <linearGradient id="linear-gradient8" x1="-759.2" y1="-969.2" x2="-723.5" y2="-969.2" gradientTransform="translate(1193 -1131.3) scale(1.4 -1.4)" gradientUnits="userSpaceOnUse">
      <stop offset="0" stop-color="#eff1fe"/>
      <stop offset="1" stop-color="#e4e7fb"/>
    </linearGradient>
    <linearGradient id="linear-gradient9" x1="-802.3" y1="-967.8" x2="-759.1" y2="-967.8" gradientTransform="translate(1193 -1131.3) scale(1.4 -1.4)" gradientUnits="userSpaceOnUse">
      <stop offset="0" stop-color="#e4e7fb"/>
      <stop offset="1" stop-color="#e4e7fb"/>
    </linearGradient>
    <linearGradient id="linear-gradient10" x1="-722.7" y1="-92.2" x2="-636.5" y2="-241.6" gradientTransform="translate(913.3 -110.1) scale(1.1 -1.1)" gradientUnits="userSpaceOnUse">
      <stop offset="0" stop-color="#f1f4fe"/>
      <stop offset=".6" stop-color="#f6f8fe"/>
      <stop offset="1" stop-color="#fff"/>
    </linearGradient>
  </defs>
  <g class="st11">
    <g id="Layer_11" data-name="Layer_1">
      <g>
        <path class="st12" d="M276.6,100v-33.7c-3.5-9.8-10.2-19.2-20-27.9-11.5,5.4-28.4,5-39.1-1.2-.8-.5-1.5-1-2.2-1.5V14.7c-14.9-5.7-31.2-9.5-48.1-11.5-1.4,8.5-13.8,15.2-29,15.2s-15.4-1.9-20.7-4.9c-4.6-2.7-7.7-6.2-8.5-10.2-16.8,2-33.2,5.9-48,11.5v21.5c-.7.4-1.3.8-1.9,1.2-10.7,6.2-27.6,6.6-39.1,1.2C10.2,47.1,3.6,56.6.1,66.4v45.4s0,0,.1,0v33.7c3.5,9.8,10.2,19.3,20,27.9,1.4-.7,2.9-1.2,4.4-1.7.1,0,.3,0,.4-.1,1.4-.4,2.9-.8,4.4-1.1.1,0,.2,0,.4,0,1.5-.3,3.1-.5,4.7-.6.3,0,.6,0,.9,0,1.5-.1,3.1-.2,4.6-.1h.2c1.6,0,3.2.2,4.8.4.1,0,.2,0,.4,0,1.5.2,3,.5,4.4.9.3,0,.6.1.9.2,1.4.4,2.8.8,4.2,1.3,0,0,.1,0,.2,0,1.5.6,3,1.2,4.3,2,.8.5,1.5.9,2.2,1.4v21.2c2.1.9,4.3,1.6,6.5,2.4.7.2,1.4.5,2.2.7,1.6.5,3.2,1,4.8,1.5.4.1.8.2,1.3.4.4.1.7.2,1.1.3,1.6.5,3.1.9,4.7,1.3.7.2,1.4.4,2.1.5,2.3.5,4.6,1.1,6.9,1.5h0c.1,0,.2,0,.3,0,2.1.4,4.1.8,6.2,1.2.8,0,1.5.2,2.2.4,1.5.2,3,.5,4.5.7.2,0,.5,0,.7.1,1.6.2,3.1.4,4.7.6,0-.3.1-.5.2-.8,0-.3.2-.7.3-.9,0-.2.2-.4.2-.6.2-.3.3-.6.4-.9.1-.2.2-.4.4-.6.2-.3.4-.7.7-1,.2-.2.3-.4.4-.6.5-.6,1-1.1,1.6-1.7h0c.5-.5,1-1,1.6-1.4.2-.1.4-.2.5-.4.4-.3.9-.6,1.3-.9.2-.1.3-.2.5-.3.9-.5,1.7-1,2.7-1.4.1,0,.2-.1.3-.2,1-.4,2.1-.9,3.2-1.2.3-.1.6-.2.9-.3.5-.2,1-.3,1.6-.4.3,0,.7-.2,1-.2.6-.1,1.2-.2,1.8-.4.3,0,.6-.1.9-.2,1.1-.2,2.2-.3,3.3-.4.3,0,.5,0,.8,0,.7,0,1.5-.1,2.2-.1.7,0,1.4,0,2.2,0s1.4,0,2.1,0c.5,0,1,0,1.4,0,.5,0,.9,0,1.4.1.5,0,1,.1,1.4.2.4,0,.9.1,1.3.2.5,0,1,.1,1.5.2.4,0,.8.2,1.3.3.6.1,1.1.3,1.7.4.3.1.7.2,1.1.3,1.1.3,2.1.7,3.1,1,.5.2,1.1.4,1.6.7.2.1.4.2.7.3.7.3,1.4.7,2.1,1.1,4.6,2.7,7.7,6.2,8.5,10.2,2.1-.3,4.3-.6,6.4-.9.5,0,1-.2,1.6-.2,1.6-.3,3.2-.5,4.8-.8h.1c.6,0,1.1-.2,1.6-.3,1.6-.3,3.1-.6,4.7-.9.8-.1,1.6-.4,2.5-.6,1.3-.3,2.6-.6,3.9-.9.9-.2,1.8-.5,2.7-.7,1.2-.4,2.4-.6,3.5-1,.9-.2,1.8-.5,2.8-.8,1.1-.4,2.3-.7,3.4-1,.4,0,.8-.2,1.2-.3.3-.1.7-.2,1-.4,2.7-.9,5.4-1.8,8-2.8v-21.5c.3-.2.6-.4.8-.5.4-.2.7-.4,1.1-.7,1.2-.7,2.5-1.3,3.8-1.9.4-.1.8-.3,1.2-.5,1.2-.4,2.5-.8,3.8-1.2,0,0,.1,0,.2,0,1.4-.3,2.8-.6,4.2-.8.5,0,.9-.2,1.4-.2,1.5-.2,3-.3,4.5-.4h.4c1.6,0,3.2,0,4.7.1.1,0,.2,0,.4,0,1.5.1,3.1.3,4.6.6.2,0,.5.1.7.1,1.4.2,2.9.6,4.2,1,.4,0,.8.3,1.2.4,1.3.4,2.6.9,3.8,1.4.5-.4,1-.8,1.4-1.2.2-.2.5-.5.7-.7,1.1-1.1,2.2-2.1,3.2-3.2.3-.4.7-.7,1-1,1.3-1.4,2.5-2.8,3.6-4.2,0,0,.1-.1.2-.2.2-.3.5-.6.7-.9.7-.9,1.3-1.8,2-2.7.3-.4.6-.9.9-1.4.6-.9,1.1-1.7,1.6-2.6.1-.2.3-.5.5-.7.1-.2.2-.5.3-.7.4-.8.8-1.5,1.2-2.3.2-.5.5-1,.7-1.5.4-.8.7-1.6,1-2.4.2-.4.3-.7.5-1.1.1-.3.2-.6.3-.8v-45.4s0,0-.2,0h0ZM186.3,107.7c-26.2,15.3-68.9,15.3-95.3,0-2.7-1.6-5.1-3.3-7.3-5.1.7-.6,1.3-1.1,2.1-1.6.2-.2.3-.2.5-.4,1.3-.9,2.8-1.9,4.3-2.8,1.5-.8,3-1.6,4.6-2.4.4-.2.8-.4,1.2-.6,1.4-.7,2.9-1.3,4.4-1.9.2,0,.3-.2.5-.2,1.6-.6,3.2-1.2,4.8-1.7,1.2-.4,2.3-.7,3.5-1,.9-.2,1.8-.5,2.6-.7,1.2-.3,2.5-.5,3.7-.8.9-.2,1.8-.4,2.8-.6.4,0,.8,0,1.1-.2,1.5-.3,3.1-.5,4.7-.7.4,0,.9-.2,1.4-.2.9,0,1.8-.1,2.7-.2,1.5-.1,3.1-.3,4.6-.3.9,0,1.9,0,2.9,0,1.2,0,2.5,0,3.8,0,1,0,2.1,0,3.1,0,1.1,0,2.3,0,3.4.2,1.1,0,2.1.1,3.1.2,1.1.1,2.2.2,3.4.4,1,.1,2,.3,3,.4,1.2.2,2.4.4,3.6.6.9.2,1.9.4,2.8.6,1.4.3,2.8.7,4.2,1,.9.2,1.8.4,2.6.7.5.1,1,.3,1.5.4,1.4.4,2.7.9,4.1,1.4.4.2.8.3,1.2.4,1.2.5,2.4,1,3.6,1.5.6.2,1.2.5,1.8.8,1.7.8,3.4,1.6,4.9,2.5,2.7,1.6,5.1,3.3,7.3,5.1-2.1,1.7-4.3,3.2-6.9,4.7h0Z"/>
        <g>
          <path class="st10" d="M209,65.2c0-.3.2-.6.3-.9,0-.2.1-.4.2-.6.1-.3.3-.7.5-1,0-.2.2-.3.2-.5.3-.5.7-1.1,1.1-1.6,0,0,.1-.1.1-.2.4-.5.9-1.1,1.5-1.6.1-.1.3-.3.4-.4.6-.5,1.2-1,1.8-1.5V11.5c-.5.5-1.1,1-1.7,1.5,0,0-.1.1-.2.2,0,0-.1.2-.2.2-.6.5-1,1-1.4,1.6,0,0-.1.1-.1.1h-.1c-.4.6-.7,1.1-1.1,1.6,0,0,0,0,0,.2,0,0-.1.2-.2.3-.1.4-.3.7-.4,1.1,0,0-.1.1-.1.2,0,.1,0,.2-.1.4-.1.3-.2.6-.3,1,0,.1,0,.2-.1.4v.2c0,.4-.1.8-.1,1.1,0,.1,0,.2,0,.4v45.7c-.1-.2-.1-.4,0-.7,0-.3,0-.7.1-1,0-.2,0-.4.1-.6h0Z"/>
          <path class="st1" d="M60.9,11.5v45.4c4.3,3.1,6.5,6.9,6.5,10.8V22.3c.1-3.8-2.1-7.6-6.5-10.8h0Z"/>
          <path class="st0" d="M250.8,122.9c0-.3.2-.6.3-.9,0-.2.2-.4.3-.7.1-.3.3-.6.4-.9.1-.2.2-.4.4-.6.2-.3.4-.7.7-1,.1-.2.3-.4.4-.5.5-.6,1-1.2,1.6-1.7.1-.1.2-.2.4-.3.4-.3.8-.7,1.2-1,.2-.2.4-.3.7-.4.4-.3.8-.6,1.2-.8.2-.1.4-.2.6-.3.9-.5,1.8-1,2.8-1.5h0c1-.5,2.1-.9,3.2-1.2.3,0,.5-.2.8-.3.5-.1,1-.3,1.5-.4.3-.1.7-.2,1-.3.6-.2,1.2-.3,1.8-.4.3,0,.6-.1.9-.2,1.1-.2,2.2-.3,3.3-.4.7,0,1.5-.2,2.2-.2v-45.4c-.5,0-1.2,0-1.8.2-.1,0-.2,0-.4,0-1.1.1-2.2.3-3.2.5,0,0-.1,0-.2,0-.3,0-.6.2-1,.2-.5,0-1,.2-1.5.3-.4,0-.7.2-1.2.3-.5.1-1,.3-1.4.4-.1,0-.3,0-.4.1-.1,0-.2.1-.4.2-1.1.4-2.2.8-3.2,1.2h0c-1,.5-1.9,1-2.8,1.5-.1,0-.2.1-.3.2-.1,0-.2,0-.3.2-.4.3-.8.5-1.2.8-.2.1-.4.3-.6.4-.5.3-.9.7-1.3,1.1-.1,0-.2.2-.3.3h0c-.6.6-1.1,1.1-1.6,1.8,0,0-.1.1-.2.2,0,0-.1.2-.2.3-.3.4-.5.7-.7,1.1,0,.1-.2.2-.2.4,0,0-.1.2-.1.3-.2.3-.3.6-.4.9,0,.2-.2.3-.2.5,0,0,0,.2,0,.2-.1.3-.2.6-.2.8,0,.2-.1.4-.1.6,0,0,0,.2,0,.2,0,.3,0,.6-.1.9,0,.2,0,.4,0,.5,0,.1,0,.2,0,.4v45.4c-.1-.3,0-.7,0-1,0-.3,0-.6.1-.9,0-.3.1-.5.2-.7h0Z"/>
          <path class="st3" d="M186,52.5c-1.6-.9-3.2-1.8-4.9-2.6-.6-.3-1.1-.5-1.7-.8-1-.4-2-.9-3.1-1.3-.2,0-.4-.1-.5-.2-.4-.2-.8-.3-1.2-.5-1.3-.5-2.7-.9-4.1-1.3-.5-.2-.9-.3-1.4-.5-.3,0-.6-.2-.9-.3-.6-.2-1.2-.3-1.8-.4-1.4-.3-2.8-.7-4.1-1-.4,0-.7-.2-1.1-.3-.6-.1-1.1-.2-1.7-.3-1.2-.2-2.4-.5-3.6-.6-.5,0-.9-.2-1.4-.2-.5,0-1-.1-1.5-.2-1.1-.1-2.3-.3-3.4-.4-.5,0-1.1-.2-1.6-.2-.5,0-1,0-1.5,0-1.1,0-2.3-.1-3.4-.2-.6,0-1.1,0-1.7,0-.4,0-.9,0-1.3,0-1.2,0-2.5,0-3.7,0-.6,0-1.2,0-1.9,0-.4,0-.7,0-1.1,0-1.5,0-3,.2-4.5.3-.6,0-1.3,0-1.9.1-.3,0-.6,0-.9,0-.4,0-.8.1-1.3.2-1.6.2-3.2.4-4.8.7-.3,0-.7,0-1.1.2-.2,0-.4,0-.6,0-.8.1-1.6.3-2.3.5-1.2.3-2.4.5-3.6.8-.9.2-1.8.5-2.7.7-1.2.3-2.3.6-3.5,1-.2,0-.5.1-.7.2-1.4.5-2.7.9-4.1,1.4-.2,0-.4.2-.6.3-1.5.6-2.9,1.2-4.3,1.8-.4.2-.8.4-1.3.6-1.5.8-3.1,1.5-4.5,2.4-.3.2-.6.3-.8.5-1.2.7-2.3,1.5-3.4,2.2-.2.1-.4.3-.6.4-1.2.9-2.4,1.8-3.5,2.8-.2.1-.3.3-.4.4-.2.2-.4.3-.6.5-.8.8-1.7,1.6-2.4,2.5-.2.2-.3.3-.4.5-.4.5-.9,1-1.3,1.5-.3.4-.6.9-.9,1.2-.1.2-.2.3-.3.4-.5.8-1,1.5-1.5,2.4-.2.2-.3.5-.4.8,0,.2-.2.3-.2.5-.4.8-.8,1.7-1.2,2.6,0,.2-.1.4-.2.6,0,.2,0,.3-.1.5-.3.9-.6,1.8-.7,2.7,0,.2,0,.4,0,.6,0,.2,0,.3,0,.5-.1,1-.2,1.9-.3,2.8v46c-.1-1.2,0-2.3.1-3.4,0-.2,0-.3,0-.5.2-1.1.4-2.1.8-3.2,0-.2,0-.4.2-.5.4-1.1.8-2.2,1.3-3.2,0-.2.2-.3.3-.5.6-1.1,1.2-2.1,1.9-3.2,0-.2.2-.3.3-.4.7-.9,1.4-1.9,2.2-2.8.2-.2.3-.3.4-.5.9-1,1.9-2,3-3,.1-.1.3-.2.4-.4,1.1-.9,2.3-1.9,3.5-2.8.2-.2.3-.2.5-.4,1.3-.9,2.8-1.9,4.3-2.8,1.5-.8,3-1.6,4.6-2.4.4-.2.8-.4,1.2-.6,1.4-.7,2.9-1.3,4.4-1.9.2,0,.3-.2.5-.2,1.6-.6,3.2-1.2,4.8-1.7,1.2-.4,2.3-.7,3.5-1,.9-.2,1.8-.5,2.6-.7,1.2-.3,2.5-.5,3.7-.8.9-.2,1.8-.4,2.8-.6.4,0,.8,0,1.1-.2,1.5-.3,3.1-.5,4.7-.7.4,0,.9-.2,1.4-.2.9,0,1.8-.1,2.7-.2,1.5-.1,3.1-.3,4.6-.3.9,0,1.9,0,2.9,0,1.2,0,2.5,0,3.8,0,1,0,2.1,0,3.1,0,1.1,0,2.3,0,3.4.2,1.1,0,2.1.1,3.1.2,1.1.1,2.2.2,3.4.4,1,.1,2,.3,3,.4,1.2.2,2.4.4,3.6.6.9.2,1.9.4,2.8.6,1.4.3,2.8.7,4.2,1,.9.2,1.8.4,2.6.7.5.1,1,.3,1.5.4,1.4.4,2.7.9,4.1,1.4.4.2.8.3,1.2.4,1.2.5,2.4,1,3.6,1.5.6.2,1.2.5,1.8.8,1.7.8,3.4,1.6,4.9,2.5,13.3,7.7,19.9,17.8,19.9,27.8v-45.4c.2-10.1-6.5-20.1-19.8-27.8h0Z"/>
          <path class="st8" d="M17.8,68.1c-1.1-.6-2.2-1.2-3.4-1.7-.2,0-.3-.1-.5-.2-.1,0-.2,0-.3-.1-1.1-.4-2.3-.9-3.5-1.2,0,0-.1,0-.1,0-.1,0-.3,0-.4,0-.8-.2-1.7-.4-2.5-.6-.4-.1-.9-.2-1.3-.2-.3,0-.6-.1-.8-.1-.2,0-.5,0-.7-.1-.9-.1-1.8-.2-2.8-.3-.4,0-.8,0-1.1,0v45.4c1.5,0,3,.2,4.5.5.3,0,.6.1.8.2,1.3.2,2.6.5,3.8.8.2,0,.4,0,.5.1,1.4.4,2.7.9,4,1.4.2,0,.3.1.4.2,1.2.6,2.4,1.1,3.5,1.7,5.3,3.1,8.6,7.3,8.6,12v-45.4c.1-4.7-3.2-8.9-8.5-12h0Z"/>
          <path class="st7" d="M276.1,99c-.3.7-.6,1.5-.9,2.2-.2.6-.5,1.1-.8,1.7-.4.8-.7,1.5-1.1,2.2-.3.5-.6,1.1-.9,1.6-.5.8-1,1.7-1.6,2.5-.3.5-.6,1-.9,1.4-.6.9-1.3,1.8-2,2.7-.3.4-.5.8-.9,1.1-1.1,1.4-2.3,2.8-3.6,4.2-.3.3-.6.6-.9,1-1.1,1.1-2.1,2.2-3.3,3.3-.7.6-1.4,1.3-2.1,1.9v45.4c.3-.4.8-.8,1.2-1.2.2-.2.5-.4.7-.7,1.1-1.1,2.2-2.2,3.2-3.2.3-.4.7-.6,1-1,1.3-1.4,2.5-2.8,3.6-4.2,0,0,.1-.2.2-.2.2-.3.5-.7.7-.9.7-.9,1.3-1.8,2-2.7.3-.5.6-.9.9-1.4.6-.8,1.1-1.7,1.6-2.6.1-.3.3-.5.5-.8.1-.2.2-.4.3-.7.4-.8.8-1.6,1.2-2.3.2-.5.5-1,.7-1.5.4-.8.7-1.6,1-2.4.2-.4.3-.7.5-1.1.1-.3.2-.5.3-.8v-45.4c-.1.7-.4,1.4-.7,2h0Z"/>
          <path class="st13" d="M.3,97v45.4c3.5,9.8,10.2,19.2,19.9,27.9v-45.4C10.6,116.2,3.9,106.7.3,97Z"/>
          <path class="st4" d="M255.1,123.9c-.6-.2-1.2-.4-1.8-.6-.4-.1-.8-.3-1.2-.4-.2,0-.4-.1-.6-.2-1-.3-2-.5-3.1-.8-.2,0-.4,0-.6,0-.2,0-.5,0-.8-.1-.5,0-1-.2-1.5-.3-.9-.1-1.9-.2-2.9-.3h-.2c-.1,0-.2,0-.3,0-.8,0-1.5,0-2.3-.1h-2.8c0,0-.1,0-.2,0-1.1,0-2.2.1-3.2.2-.4,0-.7,0-1,.1-.4,0-.9.1-1.4.2-.4,0-.9.1-1.4.2-1,.2-1.9.4-2.9.6,0,0-.1,0-.1,0-.9.2-1.7.5-2.5.7-.5.2-.9.4-1.4.5-.4.2-.8.3-1.2.5-1.3.5-2.6,1.1-3.8,1.9-.1,0-.2.1-.4.2-.2.2-.5.3-.7.5-.4.2-.7.5-1.1.7-.3.2-.6.4-.9.6-.3.2-.6.5-.9.7,0,0-.1.1-.2.2-.1.1-.2.2-.3.4-.4.4-.8.9-1.2,1.3-.1.1-.2.2-.3.3,0,0-.1.2-.2.3-.2.3-.5.7-.7,1,0,.2-.2.3-.3.4,0,0,0,.1-.1.2-.1.3-.3.6-.4.9,0,.1-.2.3-.3.5,0,0,0,.1,0,.2-.1.3-.1.6-.2.9,0,.2-.1.4-.2.6,0,0,0,.1,0,.2,0,.3,0,.6-.1.9,0,.2,0,.4,0,.6v45.7c-.1-.3,0-.6,0-.9,0-.3,0-.6.1-.9,0-.3.1-.6.2-.8,0-.3.1-.5.2-.8,0-.3.2-.5.3-.8.1-.3.3-.6.4-.9.1-.2.2-.4.4-.7.2-.3.4-.6.6-1,.2-.2.3-.4.5-.6.4-.4.8-.9,1.2-1.3.2-.2.4-.4.5-.5.3-.3.6-.5.9-.8.3-.2.6-.4.8-.6.4-.3.7-.5,1.1-.7.4-.2.7-.4,1.1-.7,1.2-.7,2.5-1.3,3.8-1.8.4-.2.8-.3,1.2-.5,1.2-.4,2.5-.9,3.8-1.2,0,0,.1,0,.2,0,1.4-.3,2.8-.6,4.2-.8.5,0,.9-.1,1.4-.2,1.5-.2,3-.3,4.5-.3h.4c1.6,0,3.2,0,4.7.1.1,0,.2,0,.4,0,1.5.1,3.1.3,4.6.6.2,0,.5,0,.7.1,1.4.3,2.9.6,4.2,1.1.4.1.8.2,1.2.4,1.3.4,2.6.9,3.8,1.4v-45.4c-.5-.3-1.2-.6-1.8-.9h0Z"/>
          <path class="st6" d="M59.5,126c-1.3-.8-2.7-1.4-4.2-2h0c-.1,0-.3-.1-.4-.2-1-.4-2.1-.7-3.1-1.1-.3,0-.6-.1-.9-.2-.3,0-.6-.2-.9-.2-.4-.1-.9-.2-1.3-.3-1-.2-1.9-.3-2.9-.5,0,0-.1,0-.2,0-.2,0-.3,0-.5,0-.7,0-1.4-.2-2.2-.2-.9,0-1.7-.1-2.6-.1h-.3c-1,0-2,0-3,0-.5,0-1,0-1.5.1-.3,0-.6,0-.9,0-.2,0-.5,0-.7,0-1.3,0-2.5.3-3.8.5,0,0-.1,0-.2,0-.1,0-.2,0-.3,0-1.5.3-2.9.6-4.4,1.1-.1,0-.3,0-.5.1,0,0-.1,0-.2,0-1.5.5-2.9,1-4.2,1.7v45.4c1.3-.7,2.8-1.2,4.3-1.7.1,0,.3,0,.4,0,1.4-.5,2.9-.8,4.4-1.1.1,0,.2,0,.4,0,1.5-.3,3.1-.5,4.7-.6.3,0,.6,0,.9,0,1.5-.1,3.1-.1,4.6-.1h.2c1.6,0,3.2.2,4.8.4.1,0,.2,0,.4,0,1.5.2,3,.5,4.4.8.3,0,.6.1.9.2,1.4.4,2.8.8,4.2,1.3,0,0,.1,0,.2,0,1.5.6,3,1.3,4.3,2.1,5.8,3.4,8.7,7.7,8.7,12.1v-45.4c.1-4.4-2.7-8.8-8.5-12.1h0Z"/>
          <path class="st5" d="M216.1,148.7c-2.6,1-5.3,1.9-8,2.8-.7.2-1.4.4-2.1.7-1.1.4-2.3.7-3.5,1.1-.9.3-1.7.5-2.6.8-1.2.4-2.4.7-3.7,1-.9.2-1.7.4-2.6.6-1.3.4-2.7.7-4,.9-.8.2-1.6.3-2.3.5-1.6.4-3.2.7-4.9.9-.5,0-1.1.2-1.6.3-1.6.3-3.1.5-4.8.8-.5,0-1,.2-1.6.3-2.1.3-4.3.6-6.4.9v45.4c2-.3,4.2-.6,6.3-.9.5-.1,1-.2,1.6-.3,1.6-.2,3.2-.5,4.8-.8,0,0,.1,0,.1,0,.6-.1,1.1-.2,1.6-.3,1.6-.3,3.1-.6,4.7-.9.8-.2,1.6-.4,2.5-.6,1.3-.3,2.6-.6,3.9-.9.9-.2,1.8-.4,2.7-.7,1.2-.3,2.4-.6,3.5-.9.9-.3,1.8-.6,2.8-.8,1.1-.3,2.3-.7,3.4-1,.4-.1.8-.2,1.2-.4.3-.1.7-.2,1-.3,2.7-.9,5.4-1.8,8-2.8v-45.4c.1,0,.1,0,.1,0Z"/>
          <path class="st2" d="M159.6,150c-.7-.4-1.4-.8-2.1-1.1-.2-.1-.4-.2-.6-.3-.5-.2-1-.5-1.6-.7h0c-1-.4-2.1-.7-3.1-1-.1,0-.2-.1-.4-.1-.2,0-.4-.1-.7-.2-.6-.2-1.1-.3-1.8-.4-.2,0-.4-.1-.6-.2-.2,0-.4,0-.6,0-.4,0-1-.2-1.4-.2-.3,0-.6-.1-.9-.1-.2,0-.4,0-.6,0-.4,0-.8-.1-1.3-.2-.3,0-.6,0-.9-.1-.2,0-.4,0-.6,0-.4,0-.9,0-1.4,0-.3,0-.6,0-.9,0-.4,0-.9,0-1.3,0-.6,0-1.2,0-1.8,0s-.3,0-.4,0c-.7,0-1.3,0-2,.1-.3,0-.5,0-.8,0,0,0-.1,0-.2,0-1.1.1-2.2.3-3.2.5h-.1c-.3,0-.5.1-.7.1-.6.1-1.2.2-1.8.4-.3,0-.7.1-1,.3-.5.1-1,.2-1.5.4-.2,0-.3,0-.5.1-.2,0-.3.1-.4.1-1.1.4-2.2.8-3.2,1.2-.1,0-.2,0-.3.1-1,.5-1.9.9-2.8,1.5,0,0-.2,0-.3.1,0,0-.1,0-.2.1-.5.3-.9.6-1.3.9-.2,0-.3.2-.5.4-.6.4-1.1.9-1.6,1.3h0s0,0-.1.1c-.6.5-1.1,1.1-1.5,1.6,0,0-.1.2-.2.3,0,0-.1.2-.2.3-.2.3-.5.7-.7,1,0,.1-.2.3-.2.4,0,0,0,.1-.1.2-.1.3-.3.6-.4.9,0,.2-.2.3-.2.5,0,0,0,0,0,.2-.1.3-.2.6-.3.9,0,.2-.1.4-.2.6,0,0,0,.2,0,.3v45.4c0-.3,0-.5,0-.8,0-.3.2-.6.3-.9,0-.2.2-.4.2-.7.2-.3.3-.6.4-.9.1-.2.2-.4.4-.6.2-.3.4-.7.7-1,.2-.2.3-.4.4-.5.5-.6,1-1.1,1.6-1.7h0c.5-.6,1.1-1,1.6-1.4.2-.1.4-.2.5-.3.4-.3.9-.6,1.3-.9.2,0,.3-.2.5-.3.9-.5,1.7-1,2.7-1.4.1,0,.2-.1.3-.2,1-.5,2.1-.8,3.2-1.2.3-.1.6-.2.9-.3.5-.1,1-.3,1.6-.4.3,0,.7-.2,1-.2.6-.1,1.2-.2,1.8-.4.3,0,.6-.1.9-.2,1.1-.2,2.2-.3,3.3-.4.3,0,.5,0,.8-.1.7,0,1.5,0,2.2-.1.7,0,1.4,0,2.2,0s1.4,0,2.1,0c.5,0,1,0,1.4,0,.5,0,.9,0,1.4.1.5,0,1,0,1.4.2.4,0,.9,0,1.3.1.5,0,1,.2,1.5.3.4,0,.8.1,1.3.2.6.1,1.1.3,1.7.4.3.1.7.2,1.1.3,1.1.3,2.1.7,3.1,1,.5.2,1.1.5,1.6.7.2.1.4.2.7.3.7.3,1.4.7,2.1,1.1,4.6,2.7,7.7,6.3,8.5,10.2v-45.4c-.6-4-3.7-7.5-8.4-10.2h0Z"/>
          <path class="st13" d="M104.4,159.5c-1.4-.2-2.8-.5-4.2-.7-.8-.1-1.6-.2-2.4-.4-1.9-.3-3.8-.7-5.7-1.1-.3,0-.6-.1-.9-.2-2.3-.4-4.6-1-6.8-1.5-.7-.2-1.4-.4-2.2-.5-1.6-.4-3.1-.8-4.6-1.2-.8-.2-1.6-.5-2.4-.7-1.6-.5-3.3-1-4.9-1.5-.7-.2-1.3-.4-2-.6-2.2-.8-4.5-1.5-6.7-2.4v45.4c2,.8,4.3,1.6,6.5,2.3.7.2,1.4.5,2.2.7,1.6.5,3.2,1,4.8,1.5.4.1.8.3,1.3.4.4.1.7.2,1.1.3,1.6.4,3.1.8,4.7,1.2.7.2,1.4.4,2.1.5,2.3.6,4.6,1.1,6.9,1.6h0c.1,0,.2,0,.3,0,2.1.5,4.1.8,6.2,1.2.8.1,1.5.2,2.2.4,1.5.2,3,.5,4.5.7.2,0,.5,0,.7.1,1.6.2,3.1.4,4.7.6v-45.4c-1.7-.2-3.5-.5-5.3-.7h0Z"/>
          <path class="st9" d="M218,126c-10.7,6.2-11.3,16-1.9,22.7-14.9,5.6-31.2,9.5-48.1,11.5-.7-4-3.8-7.5-8.5-10.2-5.3-3.1-12.6-5-20.7-5-15.2,0-27.6,6.6-29,15.2-16.9-2-33.2-5.9-48.2-11.5,9.3-6.7,8.6-16.5-2.2-22.7-10.7-6.2-27.7-6.6-39.1-1.2C10.6,116.2,3.9,106.7.3,97c14.7-.9,26.2-8.1,26.2-16.8,0-4.7-3.3-8.9-8.6-12-4.6-2.7-10.8-4.5-17.7-4.8,3.5-9.8,10.1-19.2,19.8-27.9,11.5,5.4,28.5,5,39.1-1.2,10.7-6.2,11.3-16,1.9-22.7,14.9-5.6,31.2-9.5,48-11.5.7,4,3.8,7.6,8.5,10.2,5.3,3.1,12.6,4.9,20.7,4.9,15.1,0,27.5-6.7,29-15.2,16.9,2,33.2,5.9,48.2,11.5-9.3,6.6-8.6,16.5,2.1,22.7,10.8,6.2,27.7,6.6,39.2,1.2,9.8,8.6,16.5,18.1,20,27.9-14.7.8-26.1,8.1-26.1,16.8,0,4.7,3.3,8.9,8.7,12,4.6,2.7,10.8,4.5,17.7,4.9-3.5,9.8-10.1,19.2-19.8,27.9-11.5-5.4-28.5-5-39.1,1.2h0ZM91,107.7c26.4,15.2,69.1,15.2,95.3,0,26.2-15.2,26.1-40-.3-55.2-26.4-15.2-69.1-15.2-95.3,0-26.2,15.2-26.1,40,.3,55.2h0Z"/>
        </g>
      </g>
    </g>
  </g>
</svg>