<?xml version="1.0" encoding="UTF-8"?>
<svg xmlns="http://www.w3.org/2000/svg" xmlns:xlink="http://www.w3.org/1999/xlink" viewBox="0 0 344.33 210.6">
  <defs>
    <style>
      .cls-1 {
        fill: #e3e6f6;
        opacity: .38;
      }

      .cls-2 {
        fill: #fbfbfb;
        opacity: .05;
      }

      .cls-3 {
        fill: url(#linear-gradient-8);
      }

      .cls-4 {
        fill: url(#linear-gradient-7);
      }

      .cls-5 {
        fill: url(#linear-gradient-5);
      }

      .cls-6 {
        fill: url(#linear-gradient-6);
      }

      .cls-7 {
        fill: url(#linear-gradient-9);
      }

      .cls-8 {
        fill: url(#linear-gradient-4);
      }

      .cls-9 {
        fill: url(#linear-gradient-3);
      }

      .cls-10 {
        fill: url(#linear-gradient-2);
      }

      .cls-11 {
        fill: #d9def3;
        opacity: .52;
      }

      .cls-12 {
        fill: #bac3ec;
        opacity: .95;
      }

      .cls-13 {
        opacity: .29;
      }

      .cls-13, .cls-14, .cls-15, .cls-16, .cls-17, .cls-18, .cls-19, .cls-20, .cls-21, .cls-22, .cls-23, .cls-24, .cls-25, .cls-26, .cls-27, .cls-28, .cls-29, .cls-30, .cls-31, .cls-32, .cls-33, .cls-34, .cls-35, .cls-36, .cls-37, .cls-38, .cls-39, .cls-40, .cls-41, .cls-42, .cls-43, .cls-44, .cls-45, .cls-46, .cls-47, .cls-48, .cls-49, .cls-50, .cls-51, .cls-52, .cls-53, .cls-54, .cls-55, .cls-56, .cls-57, .cls-58, .cls-59, .cls-60, .cls-61, .cls-62, .cls-63, .cls-64 {
        fill: #6b8aed;
      }

      .cls-14 {
        opacity: .31;
      }

      .cls-15 {
        opacity: .27;
      }

      .cls-16 {
        opacity: .18;
      }

      .cls-17 {
        opacity: .33;
      }

      .cls-18 {
        opacity: .2;
      }

      .cls-19 {
        opacity: .51;
      }

      .cls-20 {
        opacity: .49;
      }

      .cls-21 {
        opacity: .47;
      }

      .cls-22 {
        opacity: .22;
      }

      .cls-23 {
        opacity: .59;
      }

      .cls-24 {
        opacity: .61;
      }

      .cls-25 {
        opacity: .63;
      }

      .cls-26 {
        opacity: .55;
      }

      .cls-27 {
        opacity: .53;
      }

      .cls-28 {
        opacity: .57;
      }

      .cls-29 {
        opacity: .35;
      }

      .cls-30 {
        opacity: .65;
      }

      .cls-31 {
        opacity: .67;
      }

      .cls-32 {
        opacity: .41;
      }

      .cls-33 {
        opacity: .37;
      }

      .cls-34 {
        opacity: .39;
      }

      .cls-35 {
        opacity: .96;
      }

      .cls-36 {
        opacity: .92;
      }

      .cls-37 {
        opacity: .98;
      }

      .cls-38 {
        opacity: .45;
      }

      .cls-39 {
        opacity: .94;
      }

      .cls-40 {
        opacity: .43;
      }

      .cls-41 {
        opacity: .71;
      }

      .cls-42 {
        opacity: .76;
      }

      .cls-43 {
        opacity: .69;
      }

      .cls-44 {
        opacity: .73;
      }

      .cls-45 {
        opacity: .84;
      }

      .cls-46 {
        opacity: .88;
      }

      .cls-47 {
        opacity: .8;
      }

      .cls-48 {
        opacity: .82;
      }

      .cls-49 {
        opacity: .75;
      }

      .cls-50 {
        opacity: .78;
      }

      .cls-51 {
        opacity: .9;
      }

      .cls-52 {
        opacity: .86;
      }

      .cls-53 {
        opacity: .02;
      }

      .cls-54 {
        opacity: .04;
      }

      .cls-55 {
        opacity: .06;
      }

      .cls-56 {
        opacity: .08;
      }

      .cls-57 {
        opacity: .12;
      }

      .cls-58 {
        opacity: .16;
      }

      .cls-59 {
        opacity: .14;
      }

      .cls-60 {
        opacity: .1;
      }

      .cls-61 {
        opacity: .25;
      }

      .cls-62 {
        opacity: .24;
      }

      .cls-65 {
        fill: #e6e9f6;
        opacity: .33;
      }

      .cls-66 {
        fill: url(#linear-gradient);
      }

      .cls-67 {
        fill: #bec6ed;
        opacity: .9;
      }

      .cls-68 {
        fill: #eaecf7;
        opacity: .29;
      }

      .cls-69 {
        isolation: isolate;
      }

      .cls-70 {
        fill: #f7f8fa;
        opacity: .1;
      }

      .cls-71 {
        fill: #cfd5f1;
        opacity: .67;
      }

      .cls-72 {
        fill: #dce0f4;
        opacity: .48;
      }

      .cls-73 {
        fill: #c5ccee;
        opacity: .81;
      }

      .cls-74 {
        mix-blend-mode: multiply;
      }

      .cls-75 {
        fill: #d5dbf2;
        opacity: .57;
      }

      .cls-76 {
        fill: #c1c9ed;
        opacity: .86;
      }

      .cls-77 {
        fill: #f4f5fa;
        opacity: .14;
      }

      .cls-78 {
        fill: url(#linear-gradient-10);
      }

      .cls-79 {
        fill: url(#linear-gradient-11);
      }

      .cls-80 {
        fill: #c8cfef;
        opacity: .76;
      }

      .cls-81 {
        opacity: .57;
      }

      .cls-82 {
        fill: #f0f2f9;
        opacity: .19;
      }

      .cls-83 {
        fill: #e0e3f5;
        opacity: .43;
      }

      .cls-84 {
        fill: #cbd2f0;
        opacity: .71;
      }

      .cls-85 {
        fill: #eff1fe;
      }

      .cls-86 {
        fill: #b7c0eb;
      }

      .cls-64, .cls-87 {
        opacity: 0;
      }

      .cls-88 {
        fill: #edeff8;
        opacity: .24;
      }

      .cls-89 {
        fill: #d2d8f1;
        opacity: .62;
      }

      .cls-87 {
        fill: #fefefc;
      }
    </style>
    <linearGradient id="linear-gradient" x1="-618.33" y1="1207.24" x2="-613.42" y2="1207.24" gradientTransform="translate(1043.56 -1590.38) scale(1.35)" gradientUnits="userSpaceOnUse">
      <stop offset="0" stop-color="#e4e7fb"/>
      <stop offset="1" stop-color="#e4e7fb"/>
    </linearGradient>
    <linearGradient id="linear-gradient-2" x1="-727.89" y1="1207.31" x2="-722.9" y2="1207.31" xlink:href="#linear-gradient"/>
    <linearGradient id="linear-gradient-3" x1="-587.42" y1="1247.88" x2="-568" y2="1247.88" xlink:href="#linear-gradient"/>
    <linearGradient id="linear-gradient-4" x1="-720.34" y1="1239.73" x2="-620.4" y2="1239.73" gradientTransform="translate(1043.56 -1590.38) scale(1.35)" gradientUnits="userSpaceOnUse">
      <stop offset="0" stop-color="#b7c0eb"/>
      <stop offset=".53" stop-color="#e4e7fb"/>
      <stop offset="1" stop-color="#e4e7fb"/>
    </linearGradient>
    <linearGradient id="linear-gradient-5" x1="-772.89" y1="1247.89" x2="-753.31" y2="1247.89" xlink:href="#linear-gradient"/>
    <linearGradient id="linear-gradient-6" x1="-582.58" y1="1276.9" x2="-567.83" y2="1276.9" gradientTransform="translate(1043.56 -1590.38) scale(1.35)" gradientUnits="userSpaceOnUse">
      <stop offset="0" stop-color="#eff1fe"/>
      <stop offset="1" stop-color="#e4e7fb"/>
    </linearGradient>
    <linearGradient id="linear-gradient-7" x1="-617.85" y1="1290.67" x2="-582.47" y2="1290.67" xlink:href="#linear-gradient"/>
    <linearGradient id="linear-gradient-8" x1="-757.91" y1="1290.73" x2="-722.42" y2="1290.73" xlink:href="#linear-gradient"/>
    <linearGradient id="linear-gradient-9" x1="-648.52" y1="1309.16" x2="-612.86" y2="1309.16" xlink:href="#linear-gradient-6"/>
    <linearGradient id="linear-gradient-10" x1="-691.63" y1="1307.81" x2="-648.44" y2="1307.81" xlink:href="#linear-gradient"/>
    <linearGradient id="linear-gradient-11" x1="-671.03" y1="365.35" x2="-584.82" y2="514.67" gradientTransform="translate(853.5 -420.94) scale(1.14)" gradientUnits="userSpaceOnUse">
      <stop offset="0" stop-color="#f1f4fe"/>
      <stop offset=".58" stop-color="#f6f8fe"/>
      <stop offset="1" stop-color="#fff"/>
    </linearGradient>
  </defs>
  <g class="cls-69">
    <g id="Layer_1" data-name="Layer 1">
      <g>
        <g class="cls-74">
          <path class="cls-87" d="M318.43,101.88c.04-10.65-9.58-20.42-9.56-31.06.02-5.27-7.9,11.35-11.7,6.46l-61.97,66.43c0,4.36-167.74-.83-167.77,3.6,0,1.75,1.88,4.52,2.65,6.08,1.26,2.46,2.68,4.84,4.25,7.13,3.72,5.45,8.24,10.32,13.18,14.67,9.72-4.61,21.72-4.88,31.92-1.86,2.22.64,9.45,2.59,9.43,5.17-.01,2.87-.01,5.75-.04,8.61,0,3.13-.01,6.24-.01,9.38v2.35c0,.71,5.74,2.24,6.6,2.52,10.43,3.32,20.93,5.83,31.72,7.77,2.76.45,5.5.86,8.3,1.22,2.41.33,1.92-1.88,3.11-3.76,2.03-3.24,5.97-6.67,9.73-7.75,8.94-3.96,19.69-4.5,29.12-2.13,4.97,1.2,9.99,3.28,13.73,6.85,1.71,1.64,3.12,3.62,3.8,5.92.55,1.8,1.81.89,3.49.65,2.13-.27,4.24-.6,6.35-.96,10.9-1.77,21.65-4.39,32.11-7.9.81-.27,6.38-1.75,6.38-2.44,0-.81,0-1.6.01-2.39,0-3.48,0-6.9.02-10.34,0-2.63.01-5.25.02-7.89.02-2.74,8.42-4.8,10.67-5.39,5.17-.92,10.11-1.7,15.4-1.31,2.37.44,4.78.52,7.13,1.06,1.88.43,7.18,3.16,8.45,1.99,8.26-7.53,15.28-16.69,19.07-27.25.65-3.71.04-8.03.06-11.78,0-2.83-24.62-33.56-25.65-33.68Z"/>
          <path class="cls-2" d="M315.23,101.79c.04-10.65-8.75-20.46-8.73-31.1.02-5.27-8.73,11.39-12.53,6.5l-61.97,66.43c0,4.36-167.76-.83-167.77,3.61,0,1.75,1.87,4.52,2.65,6.08,1.24,2.47,2.68,4.84,4.25,7.13,3.72,5.45,8.24,10.32,13.18,14.67,9.72-4.61,21.7-4.84,31.92-1.86,2.22.65,9.45,2.59,9.43,5.17-.01,2.87-.03,5.75-.04,8.62-.02,3.13-.01,6.24-.01,9.38v2.35c0,.71,5.74,2.25,6.6,2.52,10.42,3.35,20.92,5.92,31.72,7.77,2.76.47,5.51.85,8.3,1.22,2.41.32,1.92-1.88,3.11-3.76,2.03-3.24,5.97-6.67,9.73-7.75,8.94-3.96,19.68-4.46,29.12-2.13,4.96,1.22,9.99,3.28,13.73,6.85,1.71,1.64,3.11,3.63,3.8,5.92.54,1.8,1.81.88,3.49.65,2.12-.29,4.24-.61,6.35-.96,10.89-1.82,21.65-4.39,32.11-7.9.81-.27,6.38-1.75,6.38-2.44,0-.81,0-1.6,0-2.39.02-3.48.01-6.9.02-10.34,0-2.63,0-5.25.02-7.88.02-2.74,8.42-4.81,10.67-5.39,5.17-.92,10.11-1.7,15.4-1.31,2.37.43,4.78.52,7.13,1.06,1.88.43,7.18,3.16,8.45,1.99,8.23-7.56,15.28-16.68,19.07-27.25.64-3.71.05-8.03.06-11.78,0-2.83-24.61-33.57-25.65-33.68Z"/>
          <path class="cls-70" d="M312.03,101.71c.04-10.65-7.92-20.5-7.9-31.14.02-5.27-9.56,11.43-13.36,6.54l-61.97,66.43c0,4.36-167.76-.83-167.77,3.61,0,1.75,1.87,4.52,2.65,6.08,1.24,2.47,2.68,4.84,4.25,7.13,3.73,5.45,8.24,10.33,13.18,14.67,9.72-4.61,21.7-4.84,31.92-1.86,2.22.65,9.45,2.59,9.43,5.17-.01,2.88-.03,5.75-.04,8.62-.01,3.13-.01,6.24-.01,9.38v2.35c0,.71,5.74,2.25,6.6,2.52,10.43,3.35,20.92,5.92,31.72,7.77,2.76.47,5.51.85,8.3,1.22,2.41.32,1.92-1.87,3.11-3.76,2.03-3.24,5.97-6.67,9.72-7.75,8.94-3.96,19.68-4.46,29.13-2.13,4.96,1.22,9.99,3.28,13.73,6.85,1.71,1.63,3.11,3.63,3.8,5.92.54,1.8,1.81.88,3.49.65,2.12-.29,4.24-.61,6.35-.96,10.89-1.82,21.65-4.39,32.11-7.9.81-.27,6.38-1.75,6.38-2.44,0-.81,0-1.6,0-2.39.02-3.48.01-6.9.02-10.34,0-2.63,0-5.25.02-7.88.02-2.74,8.43-4.81,10.67-5.39,5.17-.92,10.11-1.7,15.4-1.31,2.37.43,4.78.52,7.13,1.06,1.88.43,7.18,3.16,8.45,1.99,8.24-7.55,15.28-16.68,19.07-27.25.64-3.71.04-8.03.05-11.78,0-2.83-24.61-33.57-25.65-33.68Z"/>
          <path class="cls-77" d="M308.82,101.62c.04-10.65-7.09-20.54-7.07-31.18.02-5.27-10.39,11.47-14.18,6.58l-61.97,66.43c0,4.36-167.76-.83-167.77,3.61,0,1.75,1.87,4.52,2.65,6.08,1.24,2.47,2.68,4.84,4.25,7.13,3.73,5.45,8.24,10.33,13.18,14.67,9.72-4.61,21.7-4.84,31.92-1.86,2.22.65,9.45,2.59,9.43,5.17-.01,2.88-.03,5.75-.04,8.62-.01,3.13-.01,6.24-.01,9.38v2.35c0,.71,5.74,2.25,6.6,2.52,10.43,3.36,20.92,5.92,31.72,7.77,2.76.47,5.51.85,8.3,1.22,2.41.32,1.92-1.87,3.11-3.76,2.04-3.24,5.97-6.67,9.72-7.75,8.94-3.96,19.68-4.46,29.13-2.13,4.96,1.22,9.99,3.28,13.73,6.85,1.71,1.63,3.12,3.62,3.8,5.92.55,1.8,1.81.88,3.49.65,2.12-.29,4.24-.61,6.35-.96,10.89-1.82,21.65-4.39,32.11-7.9.81-.27,6.37-1.75,6.37-2.44,0-.81,0-1.6,0-2.39.02-3.47.02-6.9.02-10.35,0-2.63,0-5.25.02-7.88.02-2.75,8.43-4.81,10.67-5.4,5.17-.92,10.11-1.7,15.4-1.31,2.37.43,4.78.52,7.13,1.06,1.88.43,7.17,3.16,8.45,1.99,8.24-7.55,15.28-16.68,19.07-27.25.64-3.71.04-8.03.05-11.78,0-2.83-24.61-33.57-25.65-33.68Z"/>
          <path class="cls-82" d="M305.62,101.53c.03-10.65-6.26-20.58-6.24-31.22.02-5.27-11.22,11.51-15.01,6.62l-61.97,66.43c0,4.36-167.76-.83-167.77,3.61,0,1.75,1.87,4.52,2.65,6.08,1.24,2.47,2.68,4.84,4.25,7.13,3.73,5.45,8.24,10.33,13.18,14.67,9.72-4.61,21.7-4.84,31.92-1.86,2.22.65,9.45,2.59,9.44,5.17-.01,2.88-.03,5.75-.04,8.62-.01,3.13-.02,6.24-.02,9.37v2.36c0,.71,5.75,2.25,6.6,2.52,10.43,3.36,20.92,5.92,31.72,7.77,2.75.47,5.51.85,8.29,1.22,2.41.32,1.92-1.87,3.11-3.76,2.04-3.24,5.97-6.67,9.72-7.75,8.94-3.96,19.69-4.46,29.13-2.13,4.96,1.22,9.99,3.28,13.73,6.85,1.71,1.63,3.12,3.62,3.8,5.92.55,1.8,1.81.88,3.49.65,2.12-.29,4.24-.61,6.35-.96,10.89-1.82,21.65-4.39,32.11-7.9.81-.27,6.37-1.75,6.37-2.44,0-.81,0-1.6,0-2.39.02-3.47.02-6.9.03-10.35,0-2.63,0-5.25.02-7.88.02-2.75,8.43-4.81,10.67-5.4,5.17-.92,10.11-1.7,15.4-1.31,2.37.43,4.78.52,7.13,1.06,1.88.43,7.18,3.16,8.45,1.99,8.25-7.53,15.28-16.68,19.07-27.25.64-3.71.04-8.03.05-11.78,0-2.83-24.61-33.57-25.65-33.68Z"/>
          <path class="cls-88" d="M302.42,101.44c.03-10.65-5.43-20.62-5.41-31.26.02-5.27-12.05,11.55-15.84,6.66l-61.97,66.43c0,4.36-167.76-.83-167.77,3.61,0,1.75,1.87,4.52,2.65,6.08,1.24,2.47,2.68,4.84,4.25,7.13,3.73,5.45,8.24,10.33,13.18,14.68,9.71-4.61,21.7-4.84,31.92-1.86,2.22.65,9.45,2.59,9.44,5.17-.01,2.88-.03,5.75-.04,8.62-.01,3.13-.02,6.24-.02,9.37v2.36c0,.71,5.75,2.25,6.6,2.52,10.43,3.36,20.92,5.92,31.72,7.77,2.75.47,5.51.85,8.29,1.22,2.41.32,1.92-1.87,3.11-3.76,2.04-3.24,5.97-6.67,9.72-7.75,8.94-3.96,19.69-4.47,29.13-2.13,4.96,1.22,9.99,3.28,13.73,6.85,1.71,1.63,3.12,3.62,3.8,5.92.55,1.8,1.8.88,3.48.65,2.12-.29,4.24-.61,6.35-.96,10.89-1.82,21.65-4.39,32.11-7.9.82-.27,6.37-1.74,6.37-2.44,0-.81,0-1.6,0-2.39.02-3.47.02-6.9.03-10.35,0-2.63,0-5.25.02-7.88s8.43-4.81,10.67-5.4c5.17-.92,10.11-1.7,15.4-1.31,2.37.43,4.78.52,7.13,1.06,1.88.43,7.18,3.16,8.46,1.99,8.25-7.53,15.28-16.68,19.07-27.25.64-3.71.04-8.04.05-11.78,0-2.83-24.61-33.57-25.65-33.68Z"/>
          <path class="cls-68" d="M299.21,101.36c.03-10.65-4.6-20.66-4.58-31.3.02-5.26-12.88,11.59-16.67,6.7l-61.97,66.43c0,4.36-167.76-.83-167.77,3.61,0,1.75,1.87,4.52,2.65,6.08,1.24,2.47,2.68,4.84,4.25,7.13,3.73,5.45,8.24,10.33,13.18,14.68,9.71-4.61,21.7-4.85,31.92-1.86,2.22.65,9.45,2.59,9.44,5.17-.02,2.88-.03,5.75-.04,8.62-.01,3.13-.02,6.24-.02,9.37v2.36c0,.71,5.75,2.25,6.6,2.52,10.43,3.37,20.92,5.92,31.73,7.77,2.75.47,5.51.85,8.29,1.22,2.41.32,1.92-1.87,3.11-3.76,2.04-3.24,5.97-6.67,9.72-7.75,8.94-3.96,19.69-4.47,29.14-2.13,4.95,1.22,9.99,3.28,13.72,6.85,1.71,1.63,3.12,3.62,3.8,5.91.55,1.8,1.8.88,3.48.65,2.12-.29,4.24-.61,6.35-.96,10.89-1.82,21.65-4.39,32.11-7.9.82-.27,6.37-1.74,6.37-2.44,0-.81,0-1.6,0-2.39.02-3.47.02-6.89.03-10.35,0-2.63,0-5.25.01-7.87s8.43-4.81,10.67-5.4c5.18-.92,10.11-1.7,15.4-1.31,2.37.42,4.77.52,7.13,1.06,1.88.43,7.17,3.16,8.46,1.99,8.25-7.53,15.28-16.68,19.07-27.25.63-3.71.04-8.04.05-11.78,0-2.83-24.61-33.57-25.65-33.68Z"/>
          <path class="cls-65" d="M296.01,101.27c.03-10.65-3.77-20.7-3.75-31.34.02-5.26-13.71,11.63-17.5,6.74l-61.97,66.43c0,4.37-167.76-.83-167.77,3.61,0,1.75,1.87,4.52,2.65,6.08,1.24,2.47,2.68,4.84,4.25,7.13,3.73,5.45,8.24,10.33,13.18,14.68,9.71-4.61,21.7-4.85,31.92-1.86,2.22.65,9.45,2.59,9.44,5.17-.02,2.88-.03,5.75-.04,8.62-.01,3.13-.02,6.23-.02,9.37v2.36c0,.71,5.75,2.25,6.6,2.52,10.43,3.37,20.92,5.92,31.73,7.77,2.75.47,5.51.85,8.29,1.22,2.4.32,1.92-1.87,3.11-3.76,2.04-3.24,5.98-6.67,9.72-7.75,8.94-3.96,19.69-4.47,29.14-2.14,4.95,1.22,9.99,3.28,13.72,6.85,1.71,1.63,3.12,3.62,3.8,5.91.55,1.81,1.8.88,3.48.65,2.12-.29,4.24-.61,6.35-.96,10.89-1.82,21.65-4.39,32.11-7.9.82-.27,6.37-1.74,6.37-2.44,0-.81,0-1.6,0-2.39.02-3.47.02-6.89.03-10.35,0-2.63,0-5.25.01-7.87s8.43-4.82,10.67-5.4c5.18-.92,10.11-1.7,15.4-1.31,2.37.42,4.77.52,7.13,1.06,1.88.43,7.17,3.16,8.46,1.99,8.25-7.53,15.27-16.68,19.08-27.25.63-3.71.04-8.04.05-11.78,0-2.83-24.61-33.58-25.64-33.67Z"/>
          <path class="cls-1" d="M292.81,101.18c.03-10.65-2.94-20.74-2.92-31.38.02-5.26-14.54,11.67-18.33,6.78l-61.97,66.43c0,4.37-167.76-.83-167.77,3.61,0,1.75,1.87,4.52,2.65,6.08,1.24,2.47,2.68,4.84,4.25,7.13,3.73,5.45,8.24,10.33,13.18,14.68,9.71-4.61,21.7-4.85,31.92-1.86,2.22.65,9.45,2.59,9.44,5.17-.02,2.88-.03,5.74-.04,8.62-.01,3.13-.02,6.23-.02,9.37v2.36c0,.71,5.75,2.25,6.6,2.52,10.43,3.37,20.92,5.92,31.73,7.77,2.75.47,5.51.85,8.29,1.22,2.4.32,1.92-1.87,3.11-3.76,2.04-3.24,5.98-6.67,9.72-7.75,8.94-3.96,19.69-4.47,29.14-2.14,4.95,1.22,9.99,3.28,13.72,6.86,1.71,1.63,3.12,3.62,3.8,5.91.54,1.81,1.8.88,3.48.65,2.12-.29,4.24-.61,6.35-.97,10.89-1.82,21.65-4.39,32.11-7.9.82-.27,6.37-1.74,6.37-2.44,0-.81,0-1.6,0-2.39.02-3.47.02-6.89.03-10.35,0-2.63,0-5.25.01-7.87s8.43-4.82,10.67-5.4c5.18-.92,10.11-1.7,15.4-1.31,2.37.42,4.77.52,7.13,1.06,1.88.43,7.17,3.16,8.46,1.99,8.25-7.53,15.27-16.68,19.08-27.24.63-3.71.03-8.04.04-11.78,0-2.83-24.61-33.58-25.64-33.67Z"/>
          <path class="cls-83" d="M289.6,101.09c.03-10.65-2.11-20.78-2.09-31.42.02-5.26-15.37,11.72-19.16,6.82l-61.97,66.43c0,4.37-167.76-.83-167.77,3.61,0,1.75,1.87,4.52,2.65,6.08,1.24,2.47,2.68,4.84,4.25,7.13,3.73,5.45,8.24,10.33,13.18,14.68,9.71-4.61,21.7-4.85,31.92-1.86,2.22.65,9.45,2.59,9.44,5.17-.02,2.88-.03,5.74-.04,8.63-.01,3.13-.02,6.23-.02,9.36v2.36c0,.71,5.76,2.25,6.6,2.52,10.43,3.38,20.92,5.92,31.73,7.77,2.75.47,5.51.85,8.29,1.22,2.4.32,1.92-1.87,3.11-3.76,2.04-3.24,5.98-6.67,9.71-7.75,8.94-3.96,19.7-4.47,29.14-2.14,4.95,1.22,9.99,3.28,13.72,6.86,1.71,1.63,3.12,3.62,3.8,5.91.54,1.81,1.8.88,3.48.65,2.12-.29,4.24-.61,6.35-.97,10.89-1.82,21.64-4.41,32.11-7.9.82-.27,6.37-1.74,6.37-2.44,0-.81,0-1.6,0-2.39.01-3.47.03-6.89.04-10.35,0-2.63,0-5.24.01-7.87s8.43-4.82,10.68-5.4c5.18-.92,10.11-1.7,15.4-1.31,2.37.42,4.77.51,7.13,1.06,1.88.43,7.17,3.16,8.46,1.99,8.24-7.53,15.27-16.68,19.08-27.24.63-3.71.03-8.04.04-11.78,0-2.84-24.61-33.58-25.64-33.67Z"/>
          <path class="cls-72" d="M286.4,101.01c.03-10.65-1.28-20.82-1.26-31.46.02-5.26-16.2,11.76-19.99,6.86l-61.97,66.43c0,4.37-167.76-.83-167.77,3.61,0,1.75,1.87,4.52,2.65,6.08,1.24,2.47,2.68,4.84,4.25,7.13,3.74,5.45,8.24,10.33,13.18,14.68,9.71-4.61,21.7-4.85,31.92-1.86,2.22.65,9.45,2.59,9.44,5.17-.02,2.88-.02,5.74-.04,8.63,0,3.13-.02,6.23-.02,9.36v2.36c0,.71,5.76,2.25,6.6,2.52,10.43,3.38,20.92,5.92,31.73,7.77,2.75.47,5.51.86,8.29,1.22,2.4.32,1.92-1.87,3.11-3.76,2.04-3.24,5.98-6.67,9.71-7.75,8.94-3.96,19.7-4.49,29.14-2.14,4.95,1.21,9.99,3.28,13.72,6.86,1.71,1.63,3.12,3.62,3.81,5.91.54,1.81,1.8.88,3.48.65,2.12-.29,4.24-.62,6.35-.97,10.89-1.82,21.64-4.41,32.11-7.9.82-.27,6.37-1.74,6.37-2.44,0-.81,0-1.6,0-2.38.01-3.47.03-6.89.04-10.35,0-2.63,0-5.24.01-7.87.01-2.75,8.43-4.82,10.68-5.4,5.18-.92,10.11-1.69,15.4-1.31,2.37.42,4.77.51,7.13,1.06,1.88.43,7.17,3.16,8.46,1.99,8.24-7.53,15.27-16.68,19.08-27.24.63-3.71.03-8.04.04-11.78,0-2.84-24.61-33.58-25.64-33.67Z"/>
          <path class="cls-11" d="M283.2,100.92c.02-10.65-.45-20.86-.43-31.5.02-5.26-17.03,11.8-20.82,6.9l-61.97,66.43c0,4.37-167.76-.83-167.77,3.61,0,1.75,1.87,4.52,2.65,6.07,1.24,2.47,2.68,4.84,4.25,7.13,3.74,5.45,8.24,10.33,13.18,14.68,9.71-4.61,21.7-4.85,31.92-1.86,2.22.65,9.45,2.59,9.44,5.17-.02,2.88-.03,5.74-.04,8.63,0,3.13-.03,6.23-.03,9.36v2.36c0,.71,5.76,2.25,6.6,2.52,10.44,3.39,20.92,5.92,31.73,7.78,2.75.47,5.51.86,8.29,1.22,2.4.32,1.92-1.87,3.11-3.76,2.04-3.24,5.98-6.67,9.71-7.75,8.94-3.96,19.7-4.49,29.15-2.14,4.95,1.21,9.99,3.28,13.72,6.86,1.71,1.63,3.12,3.62,3.81,5.91.54,1.81,1.8.88,3.48.65,2.12-.29,4.25-.62,6.35-.97,10.89-1.82,21.64-4.42,32.11-7.9.82-.27,6.37-1.74,6.37-2.44,0-.8,0-1.6,0-2.38.02-3.46.03-6.89.04-10.35,0-2.63,0-5.24,0-7.86.01-2.75,8.43-4.82,10.68-5.41,5.18-.92,10.11-1.69,15.4-1.31,2.37.42,4.77.51,7.13,1.06,1.88.43,7.17,3.16,8.46,1.99,8.24-7.53,15.27-16.68,19.08-27.24.63-3.7.03-8.04.04-11.78,0-2.84-24.61-33.58-25.64-33.67Z"/>
          <path class="cls-75" d="M279.99,100.83c.02-10.65.38-20.9.4-31.54.02-5.26-17.86,11.84-21.65,6.94l-61.97,66.43c0,4.37-167.76-.82-167.77,3.61,0,1.75,1.88,4.52,2.65,6.07,1.24,2.47,2.68,4.84,4.25,7.13,3.74,5.45,8.24,10.34,13.18,14.68,9.71-4.61,21.71-4.88,31.92-1.86,2.22.65,9.45,2.59,9.44,5.17-.02,2.88-.03,5.74-.04,8.63,0,3.13-.03,6.23-.03,9.36v2.36c0,.71,5.76,2.25,6.6,2.52,10.44,3.39,20.92,5.92,31.73,7.78,2.75.47,5.51.86,8.29,1.22,2.4.32,1.92-1.87,3.11-3.76,2.04-3.24,5.98-6.67,9.71-7.75,8.94-3.96,19.71-4.49,29.15-2.14,4.95,1.22,9.99,3.28,13.72,6.86,1.71,1.63,3.12,3.62,3.81,5.91.54,1.81,1.79.88,3.48.65,2.12-.29,4.25-.62,6.35-.97,10.89-1.82,21.64-4.42,32.11-7.9.82-.27,6.37-1.74,6.37-2.44,0-.8,0-1.6,0-2.38.02-3.46.03-6.89.04-10.35,0-2.62,0-5.24,0-7.86.01-2.75,8.43-4.82,10.68-5.41,5.18-.92,10.11-1.69,15.4-1.31,2.37.41,4.77.51,7.13,1.06,1.88.43,7.17,3.16,8.46,1.99,8.24-7.53,15.27-16.68,19.08-27.24.62-3.7.03-8.04.04-11.78,0-2.84-24.6-33.58-25.64-33.67Z"/>
          <path class="cls-89" d="M276.79,100.74c.02-10.65,1.21-20.94,1.23-31.58.02-5.26-18.69,11.88-22.48,6.98l-61.97,66.43c0,4.37-167.76-.82-167.77,3.61,0,1.74,1.88,4.52,2.65,6.07,1.24,2.47,2.68,4.84,4.24,7.13,3.74,5.45,8.24,10.34,13.18,14.68,9.71-4.61,21.71-4.87,31.92-1.86,2.22.65,9.45,2.59,9.44,5.17-.02,2.88-.03,5.74-.04,8.63,0,3.13-.03,6.23-.03,9.35v2.37c0,.71,5.76,2.25,6.6,2.52,10.44,3.39,20.92,5.92,31.74,7.78,2.75.47,5.51.86,8.29,1.22,2.4.31,1.92-1.87,3.11-3.76,2.04-3.24,5.98-6.67,9.71-7.75,8.94-3.96,19.71-4.49,29.15-2.14,4.95,1.22,9.99,3.28,13.72,6.86,1.71,1.63,3.12,3.62,3.81,5.91.54,1.81,1.79.88,3.48.65,2.12-.29,4.25-.62,6.35-.97,10.89-1.82,21.64-4.42,32.11-7.9.82-.27,6.36-1.74,6.36-2.44,0-.8,0-1.59,0-2.38.02-3.46.03-6.89.04-10.35,0-2.62,0-5.24,0-7.86.01-2.76,8.44-4.83,10.68-5.41,5.18-.92,10.11-1.69,15.4-1.31,2.37.41,4.77.51,7.13,1.06,1.87.43,7.17,3.16,8.46,1.99,8.24-7.53,15.27-16.68,19.08-27.24.62-3.7.02-8.04.03-11.78,0-2.84-24.6-33.58-25.64-33.67Z"/>
          <path class="cls-71" d="M273.59,100.66c.02-10.65,2.04-20.98,2.06-31.62.03-5.26-19.52,11.92-23.31,7.02l-61.97,66.43c0,4.37-167.76-.82-167.77,3.61,0,1.74,1.88,4.52,2.65,6.07,1.24,2.47,2.68,4.84,4.24,7.13,3.74,5.45,8.24,10.34,13.18,14.68,9.71-4.61,21.71-4.87,31.92-1.86,2.22.65,9.45,2.59,9.44,5.17-.02,2.88-.03,5.74-.04,8.63,0,3.13-.03,6.23-.03,9.35v2.37c0,.71,5.76,2.25,6.6,2.52,10.44,3.4,20.92,5.92,31.74,7.78,2.75.47,5.51.86,8.29,1.22,2.4.31,1.92-1.87,3.11-3.76,2.04-3.24,5.98-6.67,9.71-7.75,8.94-3.96,19.71-4.49,29.15-2.14,4.95,1.22,9.98,3.28,13.71,6.86,1.71,1.63,3.12,3.62,3.81,5.91.54,1.81,1.79.88,3.48.65,2.12-.29,4.25-.62,6.35-.97,10.89-1.82,21.64-4.42,32.11-7.9.82-.27,6.36-1.74,6.36-2.44,0-.8,0-1.59,0-2.38.02-3.46.04-6.89.05-10.35,0-2.62,0-5.24,0-7.86.01-2.76,8.44-4.83,10.68-5.41,5.18-.92,10.11-1.69,15.4-1.31,2.37.41,4.77.51,7.13,1.06,1.87.43,7.17,3.16,8.46,1.99,8.24-7.53,15.27-16.68,19.08-27.24.62-3.7.02-8.04.03-11.78,0-2.84-24.6-33.59-25.63-33.67Z"/>
          <path class="cls-84" d="M270.38,100.57c.02-10.65,2.87-21.02,2.89-31.66.03-5.26-20.35,11.96-24.14,7.06l-61.97,66.42c0,4.37-167.76-.82-167.77,3.62,0,1.74,1.88,4.52,2.65,6.07,1.24,2.47,2.68,4.84,4.24,7.13,3.74,5.45,8.24,10.34,13.18,14.68,9.71-4.61,21.71-4.87,31.92-1.86,2.22.65,9.45,2.59,9.44,5.17-.02,2.88-.03,5.74-.04,8.63,0,3.13-.03,6.23-.03,9.35v2.37c0,.71,5.77,2.25,6.6,2.52,10.44,3.4,20.92,5.92,31.74,7.78,2.74.47,5.51.86,8.29,1.22,2.4.31,1.92-1.87,3.11-3.76,2.04-3.23,5.98-6.67,9.71-7.75,8.94-3.96,19.71-4.49,29.16-2.14,4.95,1.22,9.98,3.29,13.71,6.86,1.71,1.63,3.12,3.62,3.81,5.91.54,1.81,1.79.88,3.48.65,2.12-.29,4.25-.62,6.35-.97,10.89-1.82,21.64-4.43,32.11-7.9.82-.27,6.36-1.74,6.36-2.44,0-.8,0-1.59,0-2.38.02-3.46.04-6.89.05-10.35,0-2.62,0-5.24,0-7.86.01-2.76,8.44-4.83,10.68-5.41,5.18-.92,10.11-1.69,15.4-1.31,2.37.41,4.77.51,7.13,1.06,1.87.43,7.17,3.16,8.46,1.99,8.24-7.53,15.27-16.68,19.08-27.24.62-3.7.02-8.04.03-11.78,0-2.84-24.6-33.59-25.63-33.67Z"/>
          <path class="cls-80" d="M267.18,100.48c.02-10.65,3.7-21.06,3.72-31.71.03-5.25-21.18,12-24.97,7.1l-61.97,66.42c0,4.37-167.76-.82-167.77,3.62,0,1.74,1.88,4.52,2.65,6.07,1.24,2.47,2.68,4.84,4.24,7.13,3.74,5.45,8.25,10.34,13.18,14.68,9.71-4.61,21.71-4.87,31.92-1.87,2.22.65,9.45,2.59,9.44,5.17-.02,2.88-.03,5.74-.04,8.63,0,3.13-.03,6.23-.03,9.35v2.37c0,.71,5.77,2.25,6.6,2.52,10.44,3.41,20.92,5.92,31.74,7.78,2.74.47,5.51.86,8.29,1.22,2.4.31,1.92-1.87,3.11-3.76,2.04-3.23,5.98-6.67,9.7-7.75,8.94-3.96,19.71-4.48,29.16-2.14,4.94,1.22,9.98,3.29,13.71,6.86,1.71,1.63,3.12,3.62,3.81,5.91.54,1.81,1.79.88,3.48.65,2.12-.29,4.25-.62,6.35-.97,10.89-1.82,21.64-4.43,32.11-7.9.82-.27,6.36-1.74,6.36-2.44,0-.8,0-1.59,0-2.38.02-3.46.04-6.89.05-10.35,0-2.62,0-5.24,0-7.86.01-2.76,8.44-4.83,10.68-5.41,5.18-.92,10.11-1.69,15.4-1.31,2.37.41,4.77.51,7.13,1.06,1.87.43,7.16,3.16,8.46,1.98,8.24-7.53,15.27-16.67,19.08-27.24.62-3.7.02-8.04.03-11.78,0-2.84-24.6-33.59-25.63-33.67Z"/>
          <path class="cls-73" d="M263.97,100.39c.02-10.65,4.53-21.1,4.55-31.75.03-5.25-22.01,12.04-25.8,7.14l-61.97,66.42c0,4.37-167.76-.82-167.77,3.62,0,1.74,1.88,4.53,2.65,6.07,1.24,2.47,2.68,4.84,4.24,7.13,3.75,5.45,8.25,10.34,13.18,14.68,9.71-4.61,21.71-4.87,31.92-1.87,2.21.65,9.45,2.59,9.44,5.18-.01,2.88-.03,5.73-.04,8.63,0,3.13-.03,6.23-.03,9.34v2.37c0,.71,5.77,2.25,6.6,2.52,10.44,3.41,20.92,5.92,31.74,7.78,2.74.47,5.51.86,8.29,1.22,2.39.31,1.92-1.87,3.11-3.76,2.04-3.23,5.98-6.67,9.7-7.75,8.94-3.96,19.71-4.48,29.16-2.14,4.94,1.22,9.98,3.29,13.71,6.86,1.71,1.63,3.12,3.62,3.81,5.91.54,1.81,1.79.89,3.48.65,2.12-.29,4.25-.62,6.35-.97,10.89-1.82,21.64-4.43,32.11-7.9.82-.27,6.36-1.74,6.36-2.44,0-.8,0-1.59,0-2.38.02-3.46.04-6.89.05-10.35,0-2.62,0-5.24,0-7.85.01-2.76,8.44-4.83,10.68-5.41,5.18-.92,10.11-1.69,15.4-1.31,2.37.4,4.76.51,7.13,1.06,1.87.43,7.17,3.16,8.46,1.98,8.25-7.51,15.26-16.67,19.08-27.24.61-3.7.02-8.04.03-11.78,0-2.84-24.6-33.59-25.63-33.67Z"/>
          <path class="cls-76" d="M260.77,100.31c.01-10.65,5.36-21.14,5.38-31.79.03-5.25-22.84,12.08-26.63,7.18l-61.97,66.42c0,4.38-167.76-.82-167.77,3.62,0,1.74,1.88,4.52,2.65,6.07,1.25,2.47,2.68,4.84,4.24,7.13,3.75,5.45,8.25,10.34,13.18,14.68,9.71-4.61,21.71-4.87,31.92-1.87,2.21.65,9.45,2.59,9.44,5.18-.01,2.88-.04,5.73-.04,8.64,0,3.13-.04,6.23-.04,9.34v2.37c0,.71,5.77,2.25,6.6,2.52,10.44,3.41,20.92,5.92,31.74,7.78,2.74.47,5.51.86,8.29,1.22,2.39.31,1.92-1.87,3.11-3.76,2.04-3.23,5.98-6.67,9.7-7.75,8.94-3.97,19.71-4.48,29.16-2.14,4.94,1.22,9.98,3.29,13.71,6.86,1.71,1.63,3.12,3.62,3.81,5.91.54,1.81,1.79.89,3.48.66,2.12-.29,4.25-.62,6.35-.97,10.89-1.82,21.64-4.44,32.11-7.9.82-.27,6.36-1.74,6.36-2.44,0-.8,0-1.59,0-2.38.02-3.46.04-6.89.05-10.35,0-2.62,0-5.24,0-7.85.01-2.76,8.44-4.83,10.68-5.41,5.18-.92,10.11-1.69,15.4-1.31,2.37.4,4.76.51,7.13,1.05,1.87.43,7.17,3.16,8.46,1.98,8.25-7.5,15.26-16.67,19.08-27.24.61-3.7.02-8.04.03-11.78,0-2.84-24.6-33.59-25.63-33.67Z"/>
          <path class="cls-67" d="M257.57,100.22c.01-10.65,6.19-21.18,6.21-31.83.03-5.25-23.67,12.12-27.46,7.22l-61.97,66.42c0,4.38-167.76-.82-167.77,3.62,0,1.74,1.88,4.52,2.65,6.07,1.25,2.47,2.67,4.84,4.24,7.13,3.75,5.45,8.25,10.34,13.18,14.68,9.71-4.61,21.71-4.87,31.92-1.87,2.21.65,9.45,2.59,9.44,5.18-.01,2.88-.04,5.73-.04,8.64,0,3.13-.04,6.23-.04,9.34v2.37c0,.71,5.77,2.25,6.6,2.52,10.44,3.42,20.92,5.92,31.74,7.78,2.74.47,5.51.86,8.29,1.22,2.39.31,1.92-1.87,3.11-3.76,2.04-3.23,5.98-6.67,9.7-7.75,8.94-3.97,19.71-4.48,29.17-2.14,4.94,1.22,9.98,3.29,13.71,6.86,1.71,1.63,3.12,3.62,3.81,5.91.54,1.81,1.78.89,3.48.66,2.12-.29,4.25-.62,6.35-.97,10.89-1.82,21.63-4.44,32.11-7.9.82-.27,6.36-1.74,6.36-2.44,0-.8,0-1.59,0-2.38.02-3.46.05-6.89.05-10.35,0-2.62,0-5.24,0-7.85.01-2.76,8.44-4.84,10.68-5.41,5.18-.92,10.11-1.69,15.4-1.31,2.37.4,4.76.51,7.13,1.05,1.87.43,7.16,3.16,8.46,1.98,8.25-7.5,15.26-16.67,19.08-27.24.61-3.7.01-8.04.02-11.78,0-2.84-24.6-33.59-25.63-33.67Z"/>
          <path class="cls-12" d="M254.36,100.13c.01-10.65,7.02-21.22,7.04-31.87.03-5.25-24.5,12.16-28.29,7.26l-61.97,66.42c0,4.38-167.76-.82-167.77,3.62,0,1.74,1.88,4.52,2.65,6.07,1.24,2.47,2.67,4.84,4.24,7.13,3.75,5.45,8.25,10.34,13.18,14.68,9.71-4.6,21.71-4.87,31.92-1.87,2.21.65,9.46,2.59,9.44,5.18-.01,2.88-.04,5.73-.04,8.64,0,3.13-.04,6.23-.04,9.34v2.37c0,.71,5.77,2.25,6.6,2.52,10.44,3.42,20.92,5.92,31.74,7.78,2.74.47,5.51.86,8.29,1.22,2.39.31,1.92-1.87,3.11-3.76,2.04-3.23,5.98-6.68,9.7-7.75,8.94-3.97,19.72-4.48,29.17-2.14,4.94,1.22,9.98,3.29,13.71,6.86,1.7,1.63,3.12,3.62,3.81,5.91.54,1.81,1.78.89,3.48.66,2.12-.29,4.25-.62,6.35-.97,10.89-1.82,21.63-4.44,32.11-7.9.82-.27,6.36-1.73,6.36-2.44,0-.8,0-1.59,0-2.38.02-3.45.05-6.89.06-10.35,0-2.62,0-5.24,0-7.85.01-2.76,8.44-4.84,10.69-5.42,5.18-.92,10.11-1.69,15.4-1.31,2.37.4,4.76.51,7.13,1.05,1.87.43,7.16,3.16,8.46,1.98,8.25-7.5,15.26-16.67,19.08-27.24.61-3.7.01-8.05.02-11.78,0-2.84-24.6-33.6-25.63-33.67Z"/>
          <path class="cls-86" d="M251.16,100.04c.01-10.65,7.85-21.26,7.87-31.91.03-5.25-25.33,12.21-29.12,7.3l-61.97,66.42c0,4.38-167.75-.82-167.77,3.62,0,1.74,1.88,4.53,2.65,6.07,1.24,2.47,2.67,4.84,4.24,7.13,3.75,5.45,8.25,10.34,13.18,14.68,9.71-4.6,21.71-4.87,31.92-1.87,2.21.65,9.44,2.59,9.44,5.18-.03,2.88-.04,5.73-.04,8.64,0,3.13-.04,6.23-.04,9.33v2.38c0,.71,5.78,2.24,6.6,2.52,10.48,3.32,20.94,5.83,31.75,7.78,2.74.45,5.5.87,8.29,1.22,2.39.32,1.91-1.88,3.11-3.76,2.03-3.24,5.98-6.68,9.7-7.75,8.94-3.97,19.72-4.48,29.17-2.15,4.94,1.22,9.98,3.29,13.7,6.86,1.7,1.63,3.12,3.62,3.81,5.91.54,1.81,1.78.89,3.48.66,2.12-.28,4.25-.62,6.35-.97,10.89-1.78,21.66-4.37,32.11-7.9.82-.26,6.36-1.73,6.36-2.44v-2.38c.03-3.45.04-6.89.06-10.35v-7.85c.02-2.76,8.44-4.84,10.69-5.42,5.18-.92,10.11-1.69,15.4-1.31,2.37.4,4.76.51,7.13,1.05,1.87.43,7.16,3.16,8.46,1.98,8.23-7.52,15.26-16.67,19.08-27.24.61-3.7,0-8.05.02-11.78,0-2.84-24.6-33.6-25.62-33.67Z"/>
        </g>
        <g class="cls-81">
          <path class="cls-64" d="M189.71,110.55c11.84-25.42,65.61-25.4,120.14.02,2.63,1.23,5.14,2.48,7.67,3.8,3.23-25.47-29.73-61.51-79.23-84.62-54.51-25.39-93.31-16.2-105.14,9.21-11.25,24.15,4.57,53.37,54.61,78.95.33-2.58.86-5.07,1.96-7.36Z"/>
          <path class="cls-53" d="M187.56,110.57c11.99-25.35,65.82-25.62,120.26,0,2.63,1.24,5.14,2.48,7.67,3.8,3.23-25.47-29.73-61.51-79.23-84.62-54.51-25.39-92.85-15.84-104.69,9.57-11.25,24.15,4.12,53.01,54.15,78.59.33-2.58.76-5.05,1.84-7.34Z"/>
          <path class="cls-54" d="M185.42,110.6c11.99-25.35,66.04-25.85,120.38-.02,2.62,1.25,5.14,2.48,7.67,3.8,3.23-25.47-29.73-61.51-79.24-84.62-54.51-25.39-92.4-15.48-104.23,9.93-11.25,24.15,3.66,52.65,53.7,78.23.33-2.58.64-5.02,1.72-7.31Z"/>
          <path class="cls-55" d="M183.27,110.62c11.99-25.35,66.26-26.08,120.5-.04,2.62,1.26,5.14,2.48,7.67,3.8,3.23-25.47-29.73-61.52-79.24-84.62-54.51-25.39-91.94-15.11-103.78,10.29-11.25,24.15,3.21,52.29,53.24,77.86.33-2.58.52-5,1.6-7.29Z"/>
          <path class="cls-56" d="M181.13,110.65c11.98-25.35,66.47-26.3,120.62-.06,2.61,1.27,5.14,2.48,7.67,3.8,3.23-25.47-29.73-61.52-79.24-84.62-54.51-25.39-91.49-14.75-103.32,10.66-11.25,24.15,2.75,51.92,52.79,77.5.33-2.58.4-4.98,1.48-7.27Z"/>
          <path class="cls-60" d="M178.98,110.67c11.98-25.35,66.69-26.53,120.74-.09,2.61,1.28,5.14,2.48,7.67,3.8,3.23-25.47-29.73-61.52-79.24-84.62-54.51-25.39-91.03-14.39-102.86,11.02-11.25,24.15,2.3,51.56,52.33,77.14.33-2.58.28-4.96,1.36-7.25Z"/>
          <path class="cls-57" d="M176.84,110.7c11.98-25.35,66.91-26.75,120.86-.11,2.6,1.29,5.14,2.48,7.67,3.8,3.23-25.47-29.73-61.52-79.24-84.62-54.51-25.39-90.57-14.02-102.41,11.38-11.25,24.15,1.84,51.2,51.87,76.78.33-2.58.16-4.94,1.24-7.23Z"/>
          <path class="cls-59" d="M174.7,110.72c11.98-25.35,67.12-26.98,120.98-.13,2.6,1.29,5.14,2.48,7.67,3.8,3.23-25.47-29.73-61.52-79.24-84.62-54.51-25.39-90.12-13.66-101.95,11.74-11.25,24.15,1.38,50.84,51.42,76.41.33-2.58.04-4.92,1.12-7.21Z"/>
          <path class="cls-58" d="M172.55,110.75c11.97-25.35,67.34-27.2,121.1-.15,2.59,1.3,5.14,2.48,7.67,3.8,3.23-25.47-29.73-61.52-79.24-84.62-54.51-25.39-89.66-13.3-101.5,12.11-11.25,24.15.93,50.47,50.96,76.05.33-2.58-.08-4.9,1-7.19Z"/>
          <path class="cls-16" d="M170.41,110.77c11.97-25.36,67.55-27.43,121.21-.17,2.59,1.31,5.14,2.48,7.67,3.8,3.23-25.47-29.73-61.52-79.24-84.62-54.51-25.39-89.2-12.93-101.04,12.47-11.25,24.15.47,50.11,50.51,75.69.33-2.58-.2-4.88.88-7.17Z"/>
          <path class="cls-18" d="M168.26,110.8c11.97-25.36,67.77-27.65,121.33-.19,2.58,1.32,5.14,2.48,7.68,3.8,3.22-25.47-29.73-61.52-79.24-84.62-54.51-25.39-88.75-12.57-100.58,12.83-11.25,24.15.02,49.75,50.05,75.33.33-2.58-.32-4.85.76-7.15Z"/>
          <path class="cls-22" d="M166.12,110.82c11.97-25.36,67.99-27.88,121.45-.21,2.58,1.33,5.14,2.48,7.68,3.8,3.22-25.47-29.73-61.52-79.24-84.62-54.51-25.39-88.29-12.21-100.13,13.19-11.25,24.16-.44,49.39,49.6,74.96.33-2.58-.44-4.83.64-7.12Z"/>
          <path class="cls-62" d="M163.97,110.84c11.96-25.36,68.2-28.1,121.57-.23,2.57,1.34,5.14,2.48,7.68,3.8,3.22-25.47-29.73-61.52-79.24-84.62-54.51-25.39-87.84-11.85-99.67,13.56-11.25,24.16-.89,49.02,49.14,74.6.33-2.58-.56-4.81.52-7.1Z"/>
          <path class="cls-61" d="M161.83,110.87c11.96-25.36,68.42-28.33,121.69-.26,2.56,1.35,5.14,2.48,7.68,3.8,3.22-25.47-29.73-61.52-79.24-84.62-54.51-25.39-87.38-11.48-99.22,13.92-11.25,24.16-1.35,48.66,48.68,74.24.33-2.58-.68-4.79.4-7.08Z"/>
          <path class="cls-15" d="M159.69,110.89c11.96-25.36,68.64-28.55,121.81-.28,2.56,1.35,5.14,2.48,7.68,3.8,3.22-25.47-29.73-61.52-79.24-84.62-54.51-25.39-86.92-11.12-98.76,14.28-11.25,24.16-1.81,48.3,48.23,73.88.32-2.58-.8-4.77.28-7.06Z"/>
          <path class="cls-13" d="M157.54,110.92c11.96-25.36,68.85-28.78,121.93-.3,2.55,1.36,5.15,2.48,7.68,3.8,3.22-25.47-29.73-61.52-79.24-84.62-54.51-25.39-86.47-10.76-98.3,14.64-11.25,24.16-2.26,47.94,47.77,73.51.32-2.57-.92-4.75.16-7.04Z"/>
          <path class="cls-14" d="M155.4,110.94c11.95-25.36,69.07-29,122.05-.32,2.55,1.37,5.15,2.48,7.68,3.8,3.22-25.47-29.73-61.52-79.24-84.62-54.51-25.39-86.01-10.39-97.85,15-11.25,24.16-2.72,47.57,47.32,73.15.32-2.57-1.04-4.73.04-7.02Z"/>
          <path class="cls-17" d="M153.25,110.97c11.95-25.36,69.29-29.23,122.17-.34,2.54,1.38,5.15,2.48,7.68,3.8,3.22-25.47-29.73-61.52-79.24-84.62-54.51-25.39-85.56-10.03-97.39,15.37-11.25,24.16-3.17,47.21,46.86,72.79.32-2.57-1.16-4.7-.08-7Z"/>
          <path class="cls-29" d="M151.11,110.99c11.95-25.36,69.5-29.45,122.29-.36,2.54,1.39,5.15,2.48,7.68,3.8,3.22-25.47-29.73-61.52-79.24-84.62-54.51-25.39-85.1-9.67-96.94,15.73-11.25,24.16-3.63,46.85,46.41,72.42.32-2.57-1.28-4.68-.19-6.98Z"/>
          <path class="cls-33" d="M148.97,111.02c11.94-25.37,69.72-29.68,122.41-.38,2.53,1.4,5.15,2.48,7.68,3.8,3.22-25.47-29.73-61.52-79.24-84.62-54.51-25.39-84.64-9.31-96.48,16.09-11.25,24.16-4.08,46.49,45.95,72.06.32-2.57-1.39-4.66-.31-6.96Z"/>
          <path class="cls-34" d="M146.82,111.04c11.94-25.37,69.93-29.9,122.53-.4,2.53,1.41,5.15,2.48,7.68,3.8,3.22-25.47-29.73-61.52-79.25-84.62-54.51-25.39-84.19-8.94-96.02,16.45-11.25,24.16-4.54,46.12,45.49,71.7.32-2.57-1.51-4.64-.43-6.93Z"/>
          <path class="cls-32" d="M144.68,111.07c11.94-25.37,70.15-30.13,122.65-.42,2.52,1.42,5.15,2.48,7.68,3.8,3.22-25.47-29.73-61.52-79.25-84.62-54.51-25.39-83.73-8.58-95.57,16.82-11.25,24.16-5,45.76,45.04,71.34.32-2.57-1.63-4.62-.55-6.91Z"/>
          <path class="cls-40" d="M142.53,111.09c11.94-25.37,70.37-30.36,122.77-.45,2.52,1.42,5.15,2.48,7.68,3.8,3.22-25.47-29.73-61.52-79.25-84.62-54.51-25.39-83.27-8.22-95.11,17.18-11.25,24.16-5.45,45.4,44.58,70.97.32-2.57-1.75-4.6-.67-6.89Z"/>
          <path class="cls-38" d="M140.39,111.12c11.93-25.37,70.58-30.58,122.89-.47,2.51,1.43,5.15,2.48,7.68,3.8,3.21-25.47-29.73-61.52-79.25-84.62-54.51-25.39-82.82-7.85-94.66,17.54-11.25,24.17-5.91,45.04,44.13,70.61.32-2.57-1.87-4.58-.79-6.87Z"/>
          <path class="cls-21" d="M138.24,111.14c11.93-25.37,70.74-30.7,123.01-.49,2.5,1.45,5.15,2.48,7.68,3.8,3.21-25.47-29.73-61.52-79.25-84.62-54.51-25.39-82.36-7.49-94.2,17.9-11.25,24.17-6.36,44.67,43.67,70.25.32-2.57-1.99-4.55-.91-6.85Z"/>
          <path class="cls-20" d="M136.1,111.16c11.93-25.37,70.95-30.92,123.13-.51,2.5,1.46,5.15,2.48,7.68,3.8,3.21-25.47-29.73-61.52-79.25-84.62-54.51-25.39-81.91-7.13-93.74,18.27-11.25,24.17-6.82,44.31,43.21,69.89.32-2.57-2.11-4.53-1.03-6.83Z"/>
          <path class="cls-19" d="M133.96,111.19c11.93-25.37,71.16-31.14,123.25-.53,2.49,1.46,5.15,2.48,7.68,3.8,3.21-25.47-29.73-61.52-79.25-84.62-54.51-25.39-81.45-6.77-93.29,18.63-11.25,24.17-7.28,43.95,42.76,69.52.32-2.57-2.23-4.51-1.15-6.81Z"/>
          <path class="cls-27" d="M131.81,111.21c11.92-25.37,71.37-31.36,123.36-.55,2.49,1.47,5.15,2.48,7.69,3.8,3.21-25.47-29.73-61.52-79.25-84.62-54.51-25.39-80.99-6.4-92.83,18.99-11.25,24.17-7.73,43.59,42.3,69.16.32-2.57-2.35-4.49-1.27-6.79Z"/>
          <path class="cls-26" d="M129.67,111.24c11.92-25.37,71.59-31.58,123.48-.57,2.48,1.48,5.15,2.48,7.69,3.8,3.21-25.47-29.73-61.52-79.25-84.62-54.51-25.39-80.54-6.04-92.38,19.35-11.25,24.17-8.19,43.22,41.85,68.8.32-2.57-2.47-4.47-1.39-6.76Z"/>
          <path class="cls-28" d="M127.52,111.26c11.92-25.38,71.8-31.8,123.6-.59,2.48,1.49,5.15,2.48,7.69,3.8,3.21-25.47-29.73-61.53-79.25-84.62-54.51-25.4-80.08-5.68-91.92,19.72-11.25,24.17-8.64,42.86,41.39,68.44.32-2.57-2.59-4.45-1.51-6.74Z"/>
          <path class="cls-23" d="M125.38,111.29c11.92-25.38,72.01-32.02,123.72-.61,2.47,1.5,5.15,2.48,7.69,3.8,3.21-25.47-29.73-61.53-79.25-84.62-54.51-25.4-79.63-5.31-91.46,20.08-11.25,24.17-9.1,42.5,40.94,68.07.32-2.57-2.71-4.43-1.63-6.72Z"/>
          <path class="cls-24" d="M123.23,111.31c11.91-25.38,72.22-32.24,123.84-.64,2.46,1.51,5.15,2.48,7.69,3.8,3.21-25.47-29.73-61.53-79.25-84.62-54.51-25.4-79.17-4.95-91.01,20.44-11.25,24.17-9.55,42.14,40.48,67.71.32-2.57-2.83-4.4-1.75-6.7Z"/>
          <path class="cls-25" d="M121.09,111.34c11.91-25.38,72.44-32.46,123.96-.66,2.46,1.52,5.15,2.48,7.69,3.8,3.21-25.47-29.74-61.53-79.25-84.61-54.51-25.4-78.71-4.59-90.55,20.8-11.25,24.17-10.01,41.77,40.02,67.35.31-2.57-2.95-4.38-1.87-6.68Z"/>
          <path class="cls-30" d="M118.95,111.36c11.91-25.38,72.65-32.68,124.08-.68,2.45,1.53,5.15,2.48,7.69,3.8,3.21-25.47-29.74-61.53-79.25-84.61-54.51-25.4-78.26-4.23-90.1,21.16-11.25,24.17-10.47,41.41,39.57,66.99.31-2.57-3.07-4.36-1.99-6.66Z"/>
          <path class="cls-31" d="M116.8,111.39c11.9-25.38,72.86-32.9,124.2-.7,2.45,1.54,5.15,2.48,7.69,3.8,3.21-25.47-29.74-61.53-79.25-84.61-54.51-25.4-77.8-3.86-89.64,21.53-11.25,24.17-10.92,41.05,39.11,66.62.31-2.57-3.19-4.34-2.11-6.64Z"/>
          <path class="cls-43" d="M114.66,111.41c11.9-25.38,73.08-33.12,124.32-.72,2.44,1.54,5.15,2.48,7.69,3.8,3.21-25.47-29.74-61.53-79.25-84.61-54.51-25.4-77.34-3.5-89.18,21.89-11.25,24.18-11.38,40.69,38.66,66.26.31-2.57-3.31-4.32-2.23-6.62Z"/>
          <path class="cls-41" d="M112.51,111.43c11.9-25.38,73.29-33.34,124.44-.74,2.44,1.55,5.15,2.48,7.69,3.8,3.2-25.47-29.74-61.53-79.25-84.61-54.51-25.4-76.89-3.14-88.73,22.25-11.25,24.18-11.83,40.32,38.2,65.9.31-2.57-3.43-4.3-2.35-6.6Z"/>
          <path class="cls-44" d="M110.37,111.46c11.9-25.38,73.5-33.57,124.56-.76,2.43,1.56,5.15,2.48,7.69,3.8,3.2-25.47-29.74-61.53-79.26-84.61-54.51-25.4-76.43-2.77-88.27,22.61-11.25,24.18-12.29,39.96,37.75,65.54.31-2.57-3.55-4.28-2.47-6.57Z"/>
          <path class="cls-49" d="M108.23,111.48c11.89-25.38,73.71-33.79,124.68-.78,2.43,1.57,5.15,2.48,7.69,3.8,3.2-25.47-29.74-61.53-79.26-84.61-54.51-25.4-75.98-2.41-87.82,22.98-11.25,24.18-12.74,39.6,37.29,65.17.31-2.57-3.67-4.25-2.59-6.55Z"/>
          <path class="cls-42" d="M106.08,111.51c11.89-25.38,73.93-34.01,124.8-.8,2.42,1.58,5.15,2.48,7.69,3.8,3.2-25.47-29.74-61.53-79.26-84.61-54.51-25.4-75.52-2.05-87.36,23.34-11.25,24.18-13.2,39.24,36.83,64.81.31-2.57-3.78-4.23-2.71-6.53Z"/>
          <path class="cls-50" d="M103.94,111.53c11.89-25.39,74.14-34.23,124.92-.83,2.41,1.59,5.15,2.48,7.69,3.8,3.2-25.47-29.74-61.53-79.26-84.61-54.51-25.4-75.06-1.69-86.9,23.7-11.25,24.18-13.66,38.87,36.38,64.45.31-2.57-3.9-4.21-2.83-6.51Z"/>
          <path class="cls-47" d="M101.79,111.56c11.89-25.39,74.35-34.45,125.04-.85,2.41,1.6,5.15,2.48,7.69,3.8,3.2-25.47-29.74-61.53-79.26-84.61-54.51-25.4-74.61-1.32-86.45,24.06-11.25,24.18-14.11,38.51,35.92,64.09.31-2.57-4.02-4.19-2.95-6.49Z"/>
          <path class="cls-48" d="M99.65,111.58c11.83-25.41,74.57-34.67,125.16-.87,2.4,1.61,5.15,2.48,7.69,3.8,3.2-25.47-29.74-61.53-79.26-84.61-54.51-25.4-74.15-.96-85.99,24.43-11.25,24.18-14.57,38.15,35.47,63.72.31-2.57-4.15-4.17-3.07-6.47Z"/>
          <path class="cls-45" d="M97.5,111.61c11.83-25.41,74.78-34.9,125.28-.89,2.4,1.61,5.15,2.48,7.69,3.8,3.2-25.47-29.74-61.53-79.26-84.61-54.51-25.4-73.7-.6-85.54,24.79-11.25,24.18-15.02,37.79,35.01,63.36.31-2.57-4.27-4.15-3.19-6.45Z"/>
          <path class="cls-52" d="M95.36,111.63c11.83-25.41,74.99-35.12,125.4-.91,2.39,1.62,5.15,2.48,7.7,3.8,3.2-25.47-29.74-61.53-79.26-84.61-54.51-25.4-73.24-.23-85.08,25.15-11.25,24.18-15.48,37.42,34.56,63,.31-2.57-4.39-4.13-3.31-6.43Z"/>
          <path class="cls-46" d="M93.22,111.66c11.83-25.41,75.2-35.34,125.52-.93,2.39,1.63,5.15,2.48,7.7,3.8,3.2-25.47-29.74-61.53-79.26-84.61-54.51-25.4-72.78.13-84.62,25.51-11.25,24.18-15.93,37.06,34.1,62.64.31-2.57-4.51-4.11-3.43-6.41Z"/>
          <path class="cls-51" d="M91.07,111.68c11.83-25.41,75.42-35.56,125.63-.95,2.38,1.64,5.15,2.48,7.7,3.8,3.2-25.47-29.74-61.53-79.26-84.61-54.51-25.4-72.33.49-84.17,25.87-11.25,24.18-16.39,36.7,33.64,62.27.31-2.57-4.62-4.08-3.54-6.38Z"/>
          <path class="cls-36" d="M88.93,111.71c11.83-25.41,75.63-35.78,125.75-.97,2.38,1.65,5.15,2.48,7.7,3.8,3.2-25.47-29.74-61.53-79.26-84.61-54.51-25.4-71.87.85-83.71,26.24-11.25,24.19-16.85,36.34,33.19,61.91.31-2.57-4.74-4.06-3.66-6.36Z"/>
          <path class="cls-39" d="M86.78,111.73c11.83-25.41,75.84-36.01,125.87-.99,2.37,1.66,5.15,2.48,7.7,3.8,3.2-25.47-29.74-61.53-79.26-84.61-54.51-25.4-71.41,1.22-83.26,26.6-11.25,24.19-17.3,35.97,32.73,61.55.31-2.57-4.86-4.04-3.78-6.34Z"/>
          <path class="cls-35" d="M84.64,111.75c11.83-25.41,76.06-36.23,125.99-1.02,2.36,1.67,5.15,2.48,7.7,3.8,3.19-25.47-29.74-61.53-79.26-84.61-54.51-25.4-70.96,1.58-82.8,26.96-11.25,24.19-17.76,35.61,32.28,61.19.31-2.57-4.98-4.02-3.9-6.32Z"/>
          <path class="cls-37" d="M82.5,111.78c11.83-25.41,76.27-36.45,126.11-1.04,2.36,1.68,5.15,2.48,7.7,3.8,3.19-25.47-29.74-61.53-79.26-84.61-54.51-25.4-70.5,1.94-82.34,27.32-11.25,24.19-18.21,35.25,31.82,60.82.3-2.57-5.1-4-4.02-6.3Z"/>
          <path class="cls-63" d="M80.35,111.8c11.83-25.41,76.64-36.89,126.23-1.06,2.36,1.67,5.15,2.48,7.7,3.8,3.19-25.47-29.74-61.53-79.26-84.61-54.51-25.4-70.05,2.31-81.89,27.69-11.25,24.19-18.67,34.89,31.36,60.46.3-2.57-5.22-3.98-4.14-6.28Z"/>
        </g>
        <path class="cls-86" d="M276.58,100.04l.07-33.67c-3.54-9.78-10.26-19.25-20.03-27.87-11.46,5.42-28.41,5.03-39.15-1.17-.8-.48-1.52-.96-2.21-1.45l.07-21.2c-14.95-5.66-31.27-9.53-48.19-11.54-1.45,8.51-13.84,15.18-28.99,15.18-8.07,0-15.41-1.9-20.72-4.95-4.63-2.69-7.74-6.25-8.48-10.23-16.83,2.04-33.16,5.89-48.03,11.54l-.08,21.48c-.58.42-1.19.8-1.82,1.18-10.67,6.21-27.62,6.59-39.14,1.17C10.19,47.14,3.58,56.62.11,66.37l-.11,45.43c.09,0,.16.01.25.01l-.1,33.67c3.6,9.78,10.29,19.26,20.08,27.88,1.41-.66,2.9-1.23,4.43-1.72.13-.03.27-.05.38-.12,1.44-.42,2.89-.78,4.4-1.06.11-.03.23-.05.35-.09,1.53-.29,3.1-.47,4.67-.58.3-.06.61-.06.9-.08,1.54-.11,3.08-.16,4.64-.11h.24c1.57.07,3.2.19,4.77.39.11.02.25.04.37.04,1.52.21,2.98.51,4.43.86.3.04.59.12.92.21,1.42.37,2.83.81,4.17,1.33.07.02.14.03.18.06,1.5.61,2.97,1.25,4.28,2.04.79.48,1.53.95,2.22,1.45l-.08,21.21c2.18.85,4.39,1.62,6.6,2.35.72.22,1.45.46,2.17.72,1.61.5,3.2.98,4.8,1.47.43.12.85.25,1.26.37.36.11.72.2,1.08.27,1.56.47,3.11.87,4.67,1.27.72.17,1.4.36,2.1.54,2.3.53,4.56,1.06,6.9,1.54h.03c.11,0,.22.04.32.06,2.05.41,4.13.81,6.18,1.18.75.09,1.49.22,2.23.36,1.46.23,2.97.46,4.46.71.24.01.48.05.72.12,1.55.19,3.11.39,4.66.6.04-.29.12-.54.19-.81.09-.33.17-.67.29-.95.07-.2.16-.45.25-.65.16-.33.29-.61.45-.91.11-.22.22-.43.37-.64.22-.34.45-.69.7-1.04.16-.19.29-.39.42-.56.47-.57.98-1.12,1.55-1.66l.09-.05c.47-.47,1.04-.93,1.61-1.35.17-.12.36-.25.52-.36.41-.32.88-.59,1.31-.89.17-.1.33-.19.5-.27.86-.49,1.74-.98,2.72-1.4.11-.07.19-.13.28-.16,1.03-.45,2.09-.86,3.18-1.22.3-.12.58-.18.86-.28.51-.17,1.04-.28,1.55-.45.32-.07.66-.18,1-.25.57-.15,1.16-.24,1.77-.38.29-.06.58-.15.88-.19,1.09-.19,2.18-.33,3.33-.44.26-.05.54-.05.83-.09.71-.06,1.47-.12,2.2-.14.7-.05,1.42-.06,2.17-.06.71,0,1.42.04,2.12.06.51.01.97.03,1.44.08.49.02.94.09,1.43.13.48.03.98.1,1.45.17.45.05.89.12,1.33.2.48.05,1,.13,1.48.25.45.07.84.17,1.29.26.56.1,1.11.26,1.69.4.34.1.71.21,1.08.32,1.06.3,2.08.66,3.08,1.04.54.2,1.05.45,1.58.67.21.12.45.2.69.32.7.33,1.38.69,2.05,1.07,4.62,2.68,7.73,6.25,8.49,10.25,2.14-.28,4.28-.56,6.42-.89.51-.09,1.04-.16,1.55-.25,1.59-.26,3.18-.51,4.77-.81.07,0,.11,0,.11,0,.58-.09,1.1-.24,1.63-.31,1.58-.3,3.14-.62,4.68-.92.83-.15,1.64-.39,2.47-.56,1.3-.27,2.58-.58,3.88-.86.9-.24,1.8-.47,2.69-.69,1.19-.35,2.35-.64,3.54-.96.92-.25,1.83-.52,2.76-.77,1.14-.37,2.26-.68,3.38-1.04.4-.09.78-.21,1.18-.34.34-.13.68-.24,1-.36,2.69-.87,5.36-1.79,7.97-2.8l.06-21.47c.25-.18.52-.35.77-.51.35-.22.69-.45,1.08-.68,1.2-.69,2.48-1.29,3.83-1.85.4-.14.79-.29,1.2-.47,1.24-.43,2.49-.83,3.8-1.19.06-.02.14-.04.21-.08,1.38-.34,2.8-.59,4.25-.77.47-.09.92-.16,1.37-.22,1.48-.16,2.97-.33,4.48-.35h.36c1.59-.03,3.17,0,4.73.11.13.01.24.01.38.01,1.54.14,3.07.33,4.57.6.25.04.5.1.73.15,1.44.25,2.85.63,4.21,1.04.42.09.81.27,1.2.41,1.31.43,2.59.88,3.77,1.44.47-.42.95-.81,1.38-1.25.25-.19.45-.46.7-.68,1.13-1.08,2.21-2.14,3.23-3.22.32-.35.66-.7.96-1.02,1.27-1.39,2.47-2.79,3.59-4.21.06-.07.13-.14.19-.22.25-.31.46-.65.7-.94.66-.89,1.34-1.78,1.95-2.7.33-.45.62-.93.92-1.41.58-.86,1.11-1.72,1.63-2.61.15-.23.33-.49.47-.74.13-.21.22-.48.33-.71.43-.77.84-1.54,1.22-2.31.25-.51.49-1.02.73-1.54.37-.81.7-1.61,1-2.42.17-.35.33-.71.46-1.09.12-.26.21-.55.32-.8l.12-45.43c-.12,0-.19-.02-.3-.02ZM186.32,107.67c-26.25,15.26-68.92,15.26-95.34.02-2.73-1.58-5.12-3.3-7.32-5.05.7-.55,1.34-1.13,2.08-1.62.19-.15.34-.24.52-.37,1.34-.95,2.77-1.86,4.28-2.76,1.47-.83,3.02-1.64,4.58-2.4.37-.2.76-.38,1.18-.55,1.42-.66,2.89-1.27,4.41-1.87.17-.07.32-.15.5-.22,1.59-.57,3.17-1.15,4.82-1.66,1.17-.37,2.35-.69,3.53-1.01.87-.22,1.75-.47,2.63-.72,1.22-.3,2.46-.54,3.69-.75.93-.22,1.83-.42,2.76-.61.37-.05.75-.09,1.14-.15,1.53-.27,3.1-.48,4.66-.65.42-.09.9-.16,1.37-.2.87-.1,1.77-.14,2.67-.21,1.52-.12,3.07-.26,4.61-.31.93-.03,1.91-.06,2.86-.1,1.24,0,2.5-.06,3.76,0,1.02,0,2.05.04,3.05.1,1.14.03,2.27.08,3.41.19,1.05.06,2.11.14,3.15.24,1.14.11,2.24.25,3.35.38,1,.12,2,.26,3,.41,1.18.2,2.41.42,3.59.62.92.22,1.87.39,2.77.59,1.43.29,2.83.67,4.21,1.02.91.24,1.78.43,2.65.72.48.14.97.29,1.47.44,1.36.45,2.72.88,4.05,1.4.39.15.79.26,1.19.45,1.22.47,2.41.98,3.57,1.51.57.24,1.19.47,1.75.78,1.71.79,3.36,1.62,4.95,2.54,2.73,1.61,5.14,3.3,7.32,5.07-2.07,1.65-4.32,3.25-6.88,4.73Z"/>
        <g>
          <path class="cls-66" d="M208.98,65.24c.09-.32.2-.63.29-.94.07-.2.12-.42.22-.62.14-.35.28-.69.48-1.03.08-.16.17-.33.25-.47.33-.54.66-1.07,1.07-1.59,0,0,.1-.12.14-.18.44-.53.95-1.08,1.49-1.58.14-.14.3-.28.44-.43.56-.5,1.18-1.01,1.83-1.46l.13-45.42c-.66.48-1.26.97-1.85,1.47-.05.08-.14.13-.21.2-.09.09-.14.16-.22.23-.55.51-1.03,1.01-1.45,1.55-.04.03-.1.13-.1.13l-.1.09c-.39.51-.73,1.04-1.06,1.56-.02.07-.03.07-.07.16-.07.09-.12.21-.2.32-.15.35-.32.7-.45,1.08-.06.07-.1.14-.14.22-.06.14-.07.22-.1.35-.11.32-.19.65-.28.95,0,.13-.04.25-.1.35,0,.07,0,.17,0,.17-.08.44-.12.79-.14,1.15,0,.12-.05.24-.05.37v.25l-.13,45.41c0-.23.03-.43.04-.66.06-.33.07-.68.14-1.03.02-.22.07-.41.11-.6Z"/>
          <path class="cls-10" d="M60.91,11.53l-.14,45.42c4.41,3.12,6.62,6.94,6.6,10.76l.13-45.4c0-3.83-2.18-7.65-6.59-10.77Z"/>
          <path class="cls-9" d="M250.77,122.93c.07-.31.16-.61.26-.9.08-.21.18-.44.28-.66.13-.34.27-.63.43-.95.11-.2.23-.4.38-.62.21-.33.42-.7.69-1.04.14-.2.26-.36.42-.54.49-.59,1-1.17,1.62-1.72.12-.11.25-.23.36-.32.4-.35.79-.72,1.24-1.02.2-.2.43-.33.66-.45.38-.29.78-.59,1.2-.83.21-.11.38-.22.59-.35.89-.51,1.82-1.01,2.83-1.47h.04c1-.47,2.1-.86,3.19-1.24.27-.08.53-.17.8-.26.49-.14.99-.28,1.52-.41.34-.11.67-.21,1.04-.28.58-.15,1.18-.27,1.76-.37.3-.09.61-.12.89-.21,1.1-.17,2.17-.29,3.31-.43.73-.08,1.49-.17,2.24-.21l.12-45.39c-.64.02-1.29.08-1.94.15-.12,0-.24.02-.35.02-1.1.11-2.16.29-3.2.45,0,0-.11.02-.19.02-.31.08-.64.16-.96.22-.51.1-1.01.24-1.51.33-.39.09-.74.2-1.16.3-.48.13-.95.27-1.44.43-.14.03-.3.07-.44.11-.11.05-.22.11-.36.15-1.11.38-2.17.77-3.19,1.23l-.08.03c-1.01.48-1.91.95-2.8,1.46-.11.09-.22.11-.3.18-.11.04-.19.1-.27.17-.44.27-.83.54-1.22.82-.21.14-.41.28-.64.44-.45.35-.86.69-1.28,1.05-.1.07-.21.19-.3.27l-.04.02c-.6.54-1.14,1.13-1.62,1.74-.07.07-.12.13-.19.21-.09.09-.13.21-.22.31-.26.36-.5.71-.72,1.06-.07.12-.17.22-.24.37-.05.06-.1.15-.14.26-.17.3-.28.61-.42.89-.06.2-.17.32-.22.48-.02.08-.05.18-.06.24-.1.28-.18.57-.25.85-.05.18-.12.38-.14.56-.05.07-.03.15-.05.2-.07.31-.07.62-.11.94,0,.18-.05.36-.07.54-.01.13-.01.25-.01.37l-.11,45.42c-.02-.34.04-.67.08-.97,0-.29.03-.63.1-.89.03-.27.12-.51.17-.73Z"/>
          <path class="cls-8" d="M185.99,52.47c-1.58-.91-3.23-1.76-4.95-2.57-.55-.26-1.14-.51-1.7-.76-1.03-.44-2.02-.9-3.09-1.33-.16-.08-.35-.13-.54-.2-.37-.16-.77-.29-1.17-.45-1.33-.47-2.69-.93-4.07-1.35-.49-.16-.93-.32-1.44-.47-.31-.1-.62-.2-.94-.31-.59-.17-1.18-.28-1.76-.42-1.37-.35-2.75-.72-4.14-1-.37-.08-.74-.22-1.14-.28-.55-.13-1.14-.18-1.69-.29-1.19-.23-2.37-.46-3.6-.64-.47-.08-.93-.16-1.38-.24-.52-.07-1.03-.12-1.54-.18-1.15-.14-2.28-.28-3.43-.37-.54-.05-1.07-.15-1.61-.18-.49-.05-.98-.05-1.5-.08-1.15-.09-2.28-.13-3.45-.2-.56,0-1.11-.06-1.69-.06-.44-.06-.87,0-1.34,0-1.24-.06-2.46,0-3.7,0-.62.02-1.23,0-1.85.02-.38,0-.72.04-1.09.06-1.51.07-3,.18-4.48.32-.65.05-1.27.06-1.91.12-.31.04-.61.06-.91.09-.42.06-.85.13-1.29.17-1.59.18-3.2.42-4.77.69-.34.02-.68.1-1.05.16-.18.04-.39.05-.56.09-.8.13-1.56.35-2.32.48-1.21.27-2.41.5-3.59.76-.89.23-1.77.48-2.65.72-1.18.35-2.33.63-3.5.99-.24.08-.49.12-.71.21-1.41.45-2.74.94-4.08,1.43-.23.08-.43.19-.64.27-1.47.58-2.88,1.17-4.26,1.8-.43.24-.84.41-1.28.62-1.53.76-3.05,1.53-4.53,2.37-.27.18-.56.33-.82.49-1.2.72-2.33,1.5-3.43,2.25-.18.14-.37.26-.56.39-1.23.89-2.4,1.81-3.49,2.77-.16.13-.3.26-.45.38-.2.17-.43.35-.62.52-.83.82-1.65,1.64-2.41,2.47-.17.15-.28.33-.45.54-.45.48-.9.99-1.3,1.49-.31.42-.6.85-.9,1.23-.14.17-.24.32-.34.45-.52.77-1.02,1.54-1.46,2.36-.17.25-.28.54-.42.79-.1.16-.19.31-.24.47-.44.85-.83,1.73-1.17,2.57-.08.24-.12.43-.21.63-.04.16-.1.33-.14.46-.29.91-.55,1.81-.72,2.7-.05.2-.07.38-.1.55-.02.15-.05.31-.08.47-.14.96-.25,1.92-.28,2.85v.6l-.13,45.42c0-1.17.11-2.31.27-3.42.04-.19.07-.34.1-.51.17-1.08.45-2.14.8-3.19.04-.18.09-.36.17-.51.37-1.11.8-2.15,1.31-3.17.08-.15.2-.31.27-.48.55-1.06,1.17-2.14,1.9-3.15.08-.15.21-.28.3-.44.7-.93,1.42-1.89,2.24-2.8.15-.18.28-.33.43-.51.92-.98,1.95-2,3.04-2.97.14-.13.29-.25.43-.39,1.11-.93,2.26-1.88,3.51-2.75.19-.15.34-.24.52-.37,1.34-.95,2.77-1.86,4.28-2.76,1.47-.83,3.02-1.64,4.58-2.4.37-.2.76-.38,1.18-.55,1.42-.66,2.89-1.27,4.41-1.87.17-.07.32-.15.5-.22,1.59-.57,3.17-1.15,4.82-1.66,1.17-.37,2.35-.69,3.53-1.01.87-.22,1.75-.47,2.63-.72,1.22-.3,2.46-.54,3.69-.75.93-.22,1.83-.42,2.76-.61.37-.05.75-.09,1.14-.15,1.53-.27,3.1-.48,4.66-.65.42-.09.9-.16,1.37-.2.87-.1,1.77-.14,2.67-.21,1.52-.12,3.07-.26,4.61-.31.93-.03,1.91-.06,2.86-.1,1.24,0,2.5-.06,3.76,0,1.02,0,2.05.04,3.05.1,1.14.03,2.27.08,3.41.19,1.05.06,2.11.14,3.15.24,1.14.11,2.24.25,3.35.38,1,.12,2,.26,3,.41,1.18.2,2.41.42,3.59.62.92.22,1.87.39,2.77.59,1.43.29,2.83.67,4.21,1.02.91.24,1.78.43,2.65.72.48.14.97.29,1.47.44,1.36.45,2.72.88,4.05,1.4.39.15.79.26,1.19.45,1.22.47,2.41.98,3.57,1.51.57.24,1.19.47,1.75.78,1.71.79,3.36,1.62,4.95,2.54,13.29,7.7,19.92,17.76,19.89,27.82l.13-45.4c.03-10.09-6.62-20.14-19.9-27.82Z"/>
          <path class="cls-5" d="M17.8,68.11c-1.06-.59-2.24-1.18-3.44-1.68-.17-.09-.31-.13-.48-.22-.11-.03-.22-.1-.33-.11-1.12-.45-2.29-.86-3.53-1.22,0,0-.1-.02-.14-.05-.15,0-.28-.04-.41-.09-.83-.22-1.66-.43-2.53-.59-.44-.11-.87-.17-1.32-.25-.29-.02-.58-.11-.85-.14-.24-.04-.47-.08-.7-.12-.9-.14-1.85-.24-2.82-.31-.38-.05-.75-.07-1.15-.07l-.11,45.41c1.6.06,3.13.25,4.63.48.3.05.56.11.85.16,1.32.22,2.57.49,3.77.84.17.06.35.06.52.12,1.38.4,2.73.87,3.98,1.37.17.06.3.11.44.18,1.24.55,2.41,1.11,3.49,1.7,5.31,3.06,8.6,7.3,8.63,12.01l.14-45.42c-.02-4.7-3.32-8.91-8.65-12Z"/>
          <path class="cls-6" d="M276.06,98.98c-.29.74-.63,1.5-.94,2.22-.24.55-.51,1.1-.79,1.65-.35.75-.72,1.49-1.11,2.2-.3.52-.6,1.05-.92,1.56-.49.84-1.01,1.7-1.56,2.52-.29.46-.62.98-.93,1.44-.64.92-1.29,1.82-1.99,2.73-.29.36-.54.75-.85,1.13-1.13,1.4-2.32,2.81-3.61,4.21-.27.34-.61.64-.91.97-1.06,1.11-2.14,2.19-3.27,3.27-.7.62-1.35,1.3-2.07,1.93l-.14,45.39c.47-.41.95-.83,1.38-1.25.25-.22.45-.45.7-.67,1.13-1.08,2.21-2.16,3.23-3.25.32-.35.66-.65.96-1.02,1.27-1.36,2.47-2.77,3.59-4.16.06-.09.13-.17.19-.24.25-.32.46-.67.7-.94.66-.9,1.34-1.78,1.95-2.69.33-.47.62-.93.92-1.41.58-.84,1.11-1.71,1.63-2.6.15-.27.33-.53.47-.77.13-.21.22-.45.33-.69.43-.76.84-1.55,1.22-2.34.25-.5.49-1.01.73-1.52.37-.81.7-1.61,1-2.43.17-.37.33-.71.46-1.09.12-.26.21-.51.32-.8l.12-45.41c-.25.68-.56,1.38-.82,2.04Z"/>
          <path class="cls-85" d="M.28,96.96l-.13,45.39c3.6,9.76,10.29,19.23,20.08,27.88l.14-45.42C10.57,116.19,3.88,106.71.28,96.96Z"/>
          <path class="cls-4" d="M255.12,123.92c-.58-.21-1.2-.4-1.78-.59-.39-.14-.79-.28-1.2-.4-.19-.05-.37-.14-.55-.19-1.01-.26-2.02-.52-3.05-.75-.21-.03-.42-.07-.62-.09-.25-.05-.51-.08-.75-.12-.5-.09-1.02-.2-1.54-.29-.93-.11-1.88-.22-2.85-.31h-.2c-.1,0-.22,0-.34-.04-.76-.05-1.53-.1-2.32-.12-.78,0-1.58,0-2.37,0h-.43c-.06.01-.11,0-.2,0-1.08.06-2.17.12-3.24.24-.35.03-.67.08-1.04.14-.43.04-.9.12-1.35.19-.45.07-.93.11-1.37.21-.99.17-1.94.4-2.9.6-.04.02-.12.04-.12.04-.85.25-1.69.46-2.46.72-.5.16-.93.36-1.43.53-.39.17-.79.29-1.19.46-1.32.52-2.63,1.12-3.84,1.86-.12.05-.23.14-.36.2-.25.15-.48.32-.72.48-.35.25-.73.48-1.08.74-.28.2-.58.4-.85.64-.26.24-.57.47-.85.72-.07.04-.14.11-.21.17-.1.12-.2.2-.32.35-.43.41-.83.85-1.2,1.29-.1.11-.2.23-.27.3-.09.08-.14.16-.2.27-.25.34-.48.7-.71,1.01-.06.16-.21.3-.27.45-.05.09-.07.14-.12.21-.15.32-.29.62-.4.94-.09.14-.2.33-.26.5-.03.05-.03.15-.07.18-.1.29-.15.62-.24.88-.07.2-.12.42-.18.6,0,.08,0,.1-.01.17-.06.31-.09.62-.13.9,0,.21-.04.43-.04.62,0,.09,0,.15,0,.25l-.14,45.43c0-.29.05-.57.08-.85,0-.31.06-.65.11-.92.04-.26.13-.55.2-.82.05-.27.14-.54.25-.8.08-.29.19-.53.3-.78.14-.29.28-.59.42-.88.11-.22.25-.44.41-.66.19-.33.42-.65.64-.97.17-.22.34-.44.51-.62.35-.44.76-.9,1.19-1.29.18-.19.35-.36.53-.51.28-.27.59-.49.87-.76.27-.21.55-.42.82-.64.35-.27.73-.5,1.11-.74.35-.22.69-.43,1.08-.68,1.2-.7,2.48-1.31,3.83-1.84.4-.17.79-.33,1.2-.46,1.24-.45,2.49-.88,3.8-1.22.06-.01.14-.03.21-.06,1.38-.33,2.8-.6,4.25-.82.47-.06.92-.12,1.37-.2,1.48-.16,2.97-.32,4.48-.34h.36c1.59-.03,3.17,0,4.73.11.13.03.24.03.38.03,1.54.11,3.07.33,4.57.6.25.03.5.08.73.13,1.44.29,2.85.64,4.21,1.05.42.1.81.25,1.2.4,1.31.43,2.59.89,3.77,1.45l.14-45.39c-.66-.31-1.31-.6-1.99-.89Z"/>
          <path class="cls-3" d="M59.52,125.99c-1.33-.76-2.74-1.43-4.23-2.01v-.04c-.14-.02-.28-.07-.39-.11-1.02-.39-2.07-.73-3.13-1.06-.27-.07-.6-.13-.86-.21-.32-.07-.63-.15-.94-.23-.44-.12-.86-.24-1.28-.33-.95-.2-1.92-.35-2.89-.47-.08-.04-.14-.04-.22-.04-.17-.03-.3-.03-.47-.07-.7-.07-1.42-.18-2.16-.24-.86-.07-1.74-.12-2.59-.14h-.3c-.99-.01-1.97-.01-3,0-.5.02-1.01.08-1.53.12-.3.01-.62.02-.94.06-.24,0-.51,0-.74.07-1.27.09-2.52.27-3.77.49,0,0-.13.02-.18.06-.1,0-.2.05-.3.05-1.48.3-2.94.64-4.36,1.09-.14.04-.29.07-.46.11-.05.02-.12.04-.19.06-1.46.48-2.87,1.02-4.21,1.65l-.14,45.42c1.41-.67,2.9-1.25,4.43-1.72.13-.04.27-.08.38-.09,1.44-.46,2.89-.81,4.4-1.11.11-.02.23-.04.35-.09,1.53-.27,3.1-.46,4.67-.58.3-.05.61-.06.9-.08,1.54-.11,3.08-.15,4.64-.11h.24c1.57.06,3.2.19,4.77.41.11,0,.25.04.37.04,1.52.21,2.98.5,4.43.83.3.07.59.14.92.22,1.42.4,2.83.81,4.17,1.33.07.03.14.03.18.06,1.5.61,2.97,1.27,4.28,2.05,5.77,3.35,8.65,7.69,8.65,12.06l.13-45.39c0-4.37-2.87-8.75-8.64-12.06Z"/>
          <path class="cls-7" d="M216.08,148.65c-2.62.99-5.28,1.9-8.01,2.79-.69.23-1.4.45-2.13.66-1.13.38-2.32.73-3.5,1.07-.87.26-1.73.54-2.62.75-1.23.35-2.44.68-3.69.99-.85.22-1.69.44-2.55.64-1.32.36-2.66.66-4.01.95-.76.16-1.56.34-2.33.51-1.61.35-3.22.67-4.85.95-.53.09-1.07.22-1.61.3-1.57.27-3.15.53-4.75.8-.53.08-1.04.17-1.57.26-2.14.29-4.27.6-6.43.86l-.11,45.4c2.14-.26,4.28-.56,6.42-.86.51-.1,1.04-.17,1.55-.26,1.59-.25,3.18-.49,4.77-.78.07-.01.11-.01.11-.01.58-.13,1.1-.22,1.63-.34,1.58-.28,3.14-.59,4.68-.91.83-.16,1.64-.39,2.47-.56,1.3-.28,2.58-.58,3.88-.88.9-.24,1.8-.45,2.69-.67,1.19-.34,2.35-.65,3.54-.94.92-.26,1.83-.55,2.76-.82,1.14-.33,2.26-.67,3.38-1.01.4-.12.78-.25,1.18-.37.34-.12.68-.22,1-.34,2.69-.87,5.36-1.79,7.97-2.79l.14-45.4Z"/>
          <path class="cls-78" d="M159.57,149.97c-.66-.4-1.35-.75-2.07-1.07-.19-.11-.41-.21-.61-.29-.53-.24-1.03-.47-1.58-.71h-.04c-1-.38-2.06-.72-3.13-1.03-.11-.06-.23-.11-.37-.12-.22-.09-.45-.14-.67-.17-.56-.18-1.15-.29-1.75-.45-.22-.03-.42-.1-.64-.17-.2-.02-.4-.04-.59-.09-.45-.09-.96-.17-1.44-.25-.28-.06-.58-.1-.86-.13-.18-.07-.38-.07-.58-.07-.42-.06-.84-.13-1.29-.16-.3-.02-.62-.06-.93-.11-.21-.01-.42-.01-.63-.01-.45-.06-.91-.06-1.37-.09-.28,0-.58-.04-.89-.04-.42-.03-.87-.03-1.28-.03-.6,0-1.18.03-1.76.03-.17,0-.3.04-.45.04-.66.03-1.33.09-1.99.15-.27.01-.54.02-.79.04-.09,0-.15,0-.25.02-1.12.13-2.18.28-3.25.48h-.15c-.29.06-.5.12-.74.15-.59.13-1.19.25-1.77.4-.34.06-.69.15-1.03.28-.51.11-1.01.23-1.49.4-.18.07-.35.08-.49.13-.16.05-.26.1-.4.15-1.12.4-2.17.79-3.18,1.23-.11.05-.2.09-.28.12-.98.47-1.89.93-2.75,1.46-.1.07-.2.09-.28.14-.07.04-.14.06-.16.11-.48.28-.9.61-1.34.9-.18.09-.35.23-.52.35-.59.43-1.11.86-1.63,1.33h0s-.07.08-.11.12c-.55.49-1.05,1.06-1.51,1.61-.07.08-.14.17-.23.26-.07.07-.14.2-.2.32-.25.33-.52.71-.73,1.04-.08.12-.18.26-.25.38-.03.08-.09.14-.12.22-.13.29-.28.63-.42.95-.1.18-.19.33-.25.5-.01.05-.01.09-.03.16-.12.31-.19.62-.27.93-.05.18-.14.36-.15.55-.03.08-.04.19-.06.26l-.12,45.41c.04-.28.12-.54.19-.82.09-.31.17-.61.29-.93.07-.21.16-.44.25-.67.16-.32.29-.62.45-.89.11-.25.22-.45.37-.65.22-.34.45-.69.7-1.04.16-.19.29-.37.42-.54.47-.58.98-1.13,1.55-1.67l.06-.07c.5-.48,1.07-.95,1.64-1.37.17-.12.36-.24.52-.34.41-.31.88-.6,1.31-.9.17-.09.33-.19.5-.27.86-.51,1.74-.97,2.72-1.4.11-.07.19-.12.28-.16,1.03-.46,2.09-.83,3.18-1.22.3-.12.58-.2.86-.28.51-.15,1.04-.29,1.55-.45.32-.08.66-.18,1-.25.57-.14,1.16-.22,1.77-.36.29-.06.58-.13.88-.2,1.09-.18,2.18-.33,3.33-.44.26-.03.54-.05.83-.1.71-.04,1.47-.07,2.2-.13.7-.05,1.42-.07,2.17-.07.71,0,1.42.05,2.12.07.51.06.97.07,1.44.09.49.04.94.09,1.43.13.48.03.98.09,1.45.2.45.02.89.07,1.33.15.48.08,1,.18,1.48.29.45.04.84.15,1.29.24.56.11,1.11.28,1.69.41.34.1.71.2,1.08.31,1.06.3,2.08.67,3.08,1.03.54.21,1.05.46,1.58.66.21.13.45.23.69.34.7.33,1.38.69,2.05,1.05,4.62,2.69,7.73,6.28,8.49,10.25l.11-45.4c-.73-3.99-3.83-7.54-8.46-10.23Z"/>
          <path class="cls-85" d="M104.37,159.47c-1.42-.22-2.82-.46-4.22-.68-.79-.14-1.59-.25-2.38-.41-1.88-.31-3.79-.68-5.66-1.05-.3-.07-.61-.13-.91-.2-2.29-.44-4.57-.97-6.84-1.52-.71-.18-1.42-.38-2.15-.53-1.55-.41-3.09-.83-4.6-1.22-.79-.23-1.62-.49-2.4-.7-1.63-.48-3.26-.96-4.87-1.5-.67-.21-1.35-.41-2.02-.64-2.24-.77-4.49-1.54-6.66-2.36l-.14,45.39c2.18.83,4.39,1.61,6.6,2.34.72.25,1.45.47,2.17.69,1.61.51,3.2,1.01,4.8,1.48.43.12.85.28,1.26.37.36.12.72.2,1.08.31,1.56.4,3.11.83,4.67,1.22.72.18,1.4.35,2.1.53,2.3.57,4.56,1.08,6.9,1.55h.03c.11,0,.22.04.32.05,2.05.47,4.13.84,6.18,1.21.75.12,1.49.22,2.23.35,1.46.25,2.97.46,4.46.72.24.02.48.07.72.1,1.55.21,3.11.43,4.66.61l.12-45.41c-1.81-.2-3.67-.46-5.47-.73Z"/>
          <path class="cls-79" d="M217.97,125.99c-10.66,6.19-11.28,15.98-1.89,22.66-14.87,5.63-31.21,9.49-48.05,11.54-.73-3.99-3.83-7.54-8.46-10.23-5.33-3.07-12.62-4.98-20.72-4.98-15.15,0-27.55,6.65-29.02,15.2-16.86-2.04-33.25-5.89-48.17-11.53,9.32-6.66,8.59-16.49-2.15-22.67-10.74-6.2-27.68-6.59-39.14-1.18C10.57,116.19,3.88,106.71.28,96.96c14.73-.88,26.2-8.1,26.16-16.85-.02-4.7-3.32-8.91-8.65-12-4.63-2.69-10.81-4.47-17.69-4.85,3.47-9.79,10.08-19.25,19.76-27.88,11.52,5.42,28.48,5.04,39.14-1.19,10.67-6.2,11.28-16.03,1.9-22.67,14.87-5.63,31.2-9.49,48.03-11.53.74,3.97,3.85,7.56,8.48,10.24,5.31,3.05,12.65,4.95,20.72,4.95,15.15,0,27.54-6.69,28.99-15.19,16.93,2.04,33.25,5.88,48.19,11.52-9.34,6.64-8.59,16.47,2.15,22.68,10.75,6.22,27.69,6.6,39.15,1.18,9.78,8.61,16.5,18.08,20.03,27.87-14.69.85-26.14,8.05-26.11,16.85.03,4.68,3.33,8.92,8.66,11.96,4.63,2.71,10.81,4.49,17.69,4.88-3.49,9.76-10.08,19.24-19.78,27.87-11.53-5.41-28.47-5.02-39.13,1.18ZM90.98,107.69c26.42,15.24,69.09,15.24,95.34-.02,26.22-15.22,26.08-39.95-.32-55.2-26.4-15.25-69.09-15.24-95.33,0-26.24,15.24-26.09,39.97.31,55.21h0Z"/>
        </g>
      </g>
    </g>
  </g>
</svg>