<?xml version="1.0" encoding="UTF-8"?>
<svg version="1.1" xmlns="http://www.w3.org/2000/svg" width="225" height="225">
<path d="M0 0 C74.25 0 148.5 0 225 0 C225 74.25 225 148.5 225 225 C150.75 225 76.5 225 0 225 C0 150.75 0 76.5 0 0 Z " fill="#E64C3C" transform="translate(0,0)"/>
<path d="M0 0 C74.25 0 148.5 0 225 0 C225 74.25 225 148.5 225 225 C150.75 225 76.5 225 0 225 C0 150.75 0 76.5 0 0 Z M40.75 51.43359375 C24.98200143 70.18888892 18.35620732 92.60592152 18.5625 116.8125 C18.56520905 117.55912903 18.56791809 118.30575806 18.57070923 119.07501221 C18.63171668 130.15996211 19.22455695 140.47303175 23 151 C23.38542969 152.0828125 23.77085938 153.165625 24.16796875 154.28125 C33.66709473 178.62852436 51.17168679 197.56831612 74.9375 208.3125 C77.28026165 209.2377491 79.63457087 210.1343424 82 211 C83.59908203 211.62068359 83.59908203 211.62068359 85.23046875 212.25390625 C107.5354422 219.62045099 134.3436383 216.07701545 155.26171875 205.9609375 C172.42606686 197.1828636 185.57356137 183.65270208 195 167 C195.73283203 165.76056641 195.73283203 165.76056641 196.48046875 164.49609375 C207.90952681 143.71279125 210.0588658 112.97823618 204.3125 90.125 C203.60566763 87.73017286 202.84138599 85.35093144 202 83 C201.62617188 81.92878906 201.25234375 80.85757813 200.8671875 79.75390625 C196.47748378 68.34358368 190.04580747 58.16706878 182 49 C181.34644531 48.25105469 180.69289062 47.50210938 180.01953125 46.73046875 C167.63015345 33.45779572 151.32535851 25.64579286 134 21 C133.34676758 20.82049805 132.69353516 20.64099609 132.02050781 20.45605469 C97.98773985 11.8904008 63.73684015 26.5710913 40.75 51.43359375 Z " fill="#FEFEFE" transform="translate(0,0)"/>
<path d="M0 0 C3.02977429 1.35231187 5.08472613 2.85480543 7.390625 5.23046875 C8.01388672 5.86533203 8.63714844 6.50019531 9.27929688 7.15429688 C9.92962891 7.82525391 10.57996094 8.49621094 11.25 9.1875 C15.79177321 13.80780531 20.32729956 18.32129458 25.28125 22.50390625 C28.34630848 25.17190034 31.16813678 28.08849062 34 31 C36.34460757 29.01218054 38.67661782 27.01247751 41 25 C42.05380859 24.08927734 42.05380859 24.08927734 43.12890625 23.16015625 C51.45540006 15.81987998 59.20185141 7.89260995 67 0 C70.85027991 1.78200687 73.2799142 4.07675405 76.25 7.125 C77.14203125 8.03507812 78.0340625 8.94515625 78.953125 9.8828125 C79.62859375 10.58148438 80.3040625 11.28015625 81 12 C77.96997286 15.62125195 74.93217419 19.12881539 71.5625 22.4375 C69.18999201 24.76874698 66.96830226 27.15495559 64.8125 29.6875 C59.86931403 35.43565433 54.39680835 40.68294744 49 46 C52.89976721 50.66874537 56.95214644 55.09127809 61.2734375 59.37109375 C61.84204498 59.93828629 62.41065247 60.50547882 62.99649048 61.08985901 C64.78696236 62.87479913 66.58090484 64.65620256 68.375 66.4375 C69.60049323 67.65796939 70.82575572 68.87867053 72.05078125 70.09960938 C75.03119774 73.06908756 78.01472894 76.03540257 81 79 C77.16171005 83.53451965 73.25222428 87.84901916 69 92 C65.06785699 90.41060574 62.66979654 87.83657498 59.75 84.8125 C56.59842941 81.58569298 53.44077293 78.42181337 50 75.5 C44.69858257 70.98275056 39.88065625 65.9614024 35 61 C30.09996077 65.10105194 25.53097244 69.37424556 21.0625 73.9375 C16.69476212 78.35614662 12.29756626 82.64771744 7.5546875 86.66796875 C5.59771333 88.34467275 3.78405193 90.14161257 2 92 C-1.90285767 90.41332422 -4.33520982 87.86649519 -7.25 84.875 C-8.14203125 83.96492188 -9.0340625 83.05484375 -9.953125 82.1171875 C-10.96632813 81.06917969 -10.96632813 81.06917969 -12 80 C-8.10023279 75.33125463 -4.04785356 70.90872191 0.2734375 66.62890625 C0.84204498 66.06171371 1.41065247 65.49452118 1.99649048 64.91014099 C3.78696236 63.12520087 5.58090484 61.34379744 7.375 59.5625 C8.60049323 58.34203061 9.82575572 57.12132947 11.05078125 55.90039062 C14.03119774 52.93091244 17.01472894 49.96459743 20 47 C16.5100003 42.83968095 12.95634739 38.85537242 9.0625 35.0625 C5.4417768 31.48507394 2.02863647 27.82929764 -1.2578125 23.9453125 C-3.84804749 21.05307702 -6.71361654 18.46009253 -9.59375 15.859375 C-11 14 -11 14 -11.03515625 12.09375 C-9.5326351 9.05468835 -7.3725852 7.09261361 -4.9375 4.75 C-4.01839844 3.85796875 -3.09929687 2.9659375 -2.15234375 2.046875 C-1.44207031 1.37140625 -0.73179688 0.6959375 0 0 Z " fill="#EBEDEE" transform="translate(78,66)"/>
<path d="M0 0 C1.65569542 3.05366467 2.83627654 6.2140076 4.00292969 9.48120117 C12.70176349 33.7156973 28.68557014 53.54052318 52.1875 64.8125 C75.11322823 75.08162664 101.01770253 76.70781912 124.75634766 67.99926758 C149.33651431 58.46241151 167.6735091 40.9136047 178.3125 16.8125 C180.57698952 11.30244784 182.4866412 5.7613835 184 0 C184.33 0 184.66 0 185 0 C185.21437623 5.80764704 184.64031103 10.58179285 182.9375 16.125 C182.60250488 17.22751099 182.60250488 17.22751099 182.26074219 18.35229492 C174.88391476 41.58930132 158.46520117 61.45518641 137 73 C115.63613583 84.06653127 88.28896075 87.55465848 65.11694336 80.33544922 C38.73410361 71.14881708 18.88993161 53.51194937 6.6875 28.5 C2.7133431 19.43360862 -0.8007597 10.00949621 0 0 Z " fill="#C0392A" transform="translate(20,132)"/>
<path d="M0 0 C4.34791923 3.63818419 8.47197411 7.37769712 12.4375 11.4375 C16.20015968 15.25697404 20.06209065 18.88304429 24.140625 22.36328125 C27.24136992 25.09271848 30.12097909 28.04000663 33 31 C35.73806872 29.72620281 37.96597375 28.34756812 40.25 26.375 C41.1575 25.59125 42.065 24.8075 43 24 C44.32 25.65 45.64 27.3 47 29 C42.71 33.29 38.42 37.58 34 42 C29.33892537 38.08110199 24.91265945 34.05182926 20.62890625 29.7265625 C20.06171371 29.15795502 19.49452118 28.58934753 18.91014099 28.00350952 C17.12520087 26.21303764 15.34379744 24.41909516 13.5625 22.625 C12.34203061 21.39950677 11.12132947 20.17424428 9.90039062 18.94921875 C6.93091244 15.96880226 3.96459743 12.98527106 1 10 C-3.66874537 13.89976721 -8.09127809 17.95214644 -12.37109375 22.2734375 C-12.93828629 22.84204498 -13.50547882 23.41065247 -14.08985901 23.99649048 C-15.87479913 25.78696236 -17.65620256 27.58090484 -19.4375 29.375 C-20.65796939 30.60049323 -21.87867053 31.82575572 -23.09960938 33.05078125 C-26.06908756 36.03119774 -29.03540257 39.01472894 -32 42 C-35.7658106 38.81968878 -39.48438989 35.64858175 -42.9375 32.125 C-43.52402344 31.52945313 -44.11054687 30.93390625 -44.71484375 30.3203125 C-45.13894531 29.88460937 -45.56304687 29.44890625 -46 29 C-44.35 27.35 -42.7 25.7 -41 24 C-38.69 26.31 -36.38 28.62 -34 31 C-30.44286117 29.22143058 -28.88610569 28.08476818 -26.25 25.3125 C-23.71014549 22.70286927 -21.15831085 20.22229863 -18.375 17.875 C-11.88822694 12.313048 -5.9996456 6.07548382 0 0 Z " fill="#C0392A" transform="translate(112,126)"/>
<path d="M0 0 C7.14429114 3.13651806 12.07648718 10.03311268 17.05859375 15.8359375 C20.85479933 20.0675228 24.94493494 24.0183667 29 28 C27.35 29.65 25.7 31.3 24 33 C20.1205795 29.24398282 16.2577266 25.47197568 12.40942383 21.68408203 C11.0974676 20.39730263 9.78106348 19.11504214 8.46020508 17.83740234 C6.56450531 16.00221121 4.6852906 14.15146937 2.80859375 12.296875 C2.21284042 11.7269281 1.6170871 11.1569812 1.00328064 10.56976318 C-0.63500977 8.93261719 -0.63500977 8.93261719 -3 6 C-2.67287329 3.03628341 -2.14905089 2.14905089 0 0 Z " fill="#C0392A" transform="translate(70,84)"/>
<path d="M0 0 C1.32 0.66 2.64 1.32 4 2 C3.13835307 6.56836963 0.44739226 8.9343915 -2.78515625 12.078125 C-3.36083847 12.64956238 -3.93652069 13.22099976 -4.52964783 13.80975342 C-6.36700319 15.63033802 -8.21452132 17.44020568 -10.0625 19.25 C-11.31123138 20.48368253 -12.55928669 21.71804978 -13.80664062 22.953125 C-16.8633102 25.97674655 -19.92913526 28.99079921 -23 32 C-24.65 30.35 -26.3 28.7 -28 27 C-25.00428676 23.97489042 -22.00265195 20.95572125 -19 17.9375 C-18.16082031 17.08994141 -17.32164062 16.24238281 -16.45703125 15.36914062 C-11.47026378 10.3630446 -6.36899234 5.59185523 -1 1 C-0.67 0.67 -0.34 0.34 0 0 Z " fill="#C03727" transform="translate(154,85)"/>
</svg>
