<?xml version="1.0" encoding="UTF-8"?>
<svg version="1.1" xmlns="http://www.w3.org/2000/svg" width="225" height="225">
<path d="M0 0 C74.25 0 148.5 0 225 0 C225 74.25 225 148.5 225 225 C150.75 225 76.5 225 0 225 C0 150.75 0 76.5 0 0 Z " fill="#FE9E18" transform="translate(0,0)"/>
<path d="M0 0 C74.25 0 148.5 0 225 0 C225 58.08 225 116.16 225 176 C223.96691508 173.93383016 222.93557122 171.86664126 221.93066406 169.78662109 C218.86786938 163.50827709 215.42470894 157.562125 211.75 151.625 C210.50100465 149.59002627 209.25232056 147.55486149 208.00390625 145.51953125 C207.3505127 144.45686035 206.69711914 143.39418945 206.02392578 142.29931641 C202.91607716 137.23303579 199.83419309 132.15103765 196.75256348 127.06878662 C194.95453493 124.10384271 193.1548646 121.13989548 191.35546875 118.17578125 C190.62808394 116.97738147 189.90070764 115.77897652 189.17333984 114.58056641 C185.96925917 109.30170482 182.76434205 104.02335107 179.55947876 98.7449646 C177.78961737 95.82999774 176.01981153 92.91499714 174.25 90 C173.54166693 88.83333317 172.8333336 87.66666651 172.125 86.5 C170.70833333 84.16666667 169.29166667 81.83333333 167.875 79.5 C167.34915314 78.63392372 167.34915314 78.63392372 166.81268311 77.75035095 C166.10368103 76.58254989 165.39473743 75.41471333 164.68585205 74.24684143 C162.92572593 71.3472384 161.16461958 68.44824026 159.40136719 65.55053711 C156.08474908 60.0976868 152.77869009 54.63914559 149.50512695 49.16030884 C147.96243099 46.57966904 146.41440701 44.00224499 144.8659668 41.42504883 C144.13103881 40.19845386 143.39870957 38.9702975 142.66918945 37.74047852 C141.65590024 36.03265859 140.6328156 34.33066219 139.609375 32.62890625 C139.03155273 31.66025635 138.45373047 30.69160645 137.85839844 29.69360352 C134.88720361 25.38708848 131.39568816 21.97986472 126.9375 19.25 C126.28652344 18.84265625 125.63554688 18.4353125 124.96484375 18.015625 C118.31517797 14.57842201 109.18343888 14.82840851 102.140625 16.80078125 C91.14875775 21.76760325 85.31085429 32.24461558 79.5625 42.3125 C78.51877858 44.11130038 77.47104232 45.90772314 76.42308044 47.70405579 C75.70074792 48.94257499 74.97953394 50.18174719 74.25941467 51.42155457 C70.44646553 57.97936915 66.51138026 64.46094465 62.5625 70.9375 C61.8508953 72.10646732 61.1393885 73.27549424 60.42797852 74.44458008 C58.99963692 76.79138987 57.57059608 79.13777191 56.14111328 81.48388672 C52.94140634 86.7366554 49.7511207 91.9951443 46.56011963 97.25320435 C44.79687684 100.15856027 43.03323823 103.06367585 41.26953125 105.96875 C40.91993347 106.54460342 40.57033569 107.12045685 40.21014404 107.71376038 C37.66619056 111.90374771 35.12043757 116.09263902 32.57421875 120.28125 C28.37805026 127.1846165 24.1866546 134.09085872 20 141 C19.40219727 141.98629395 18.80439453 142.97258789 18.18847656 143.98876953 C11.8195418 154.50859303 5.50298852 164.99402295 0 176 C0 117.92 0 59.84 0 0 Z " fill="#FEFEFE" transform="translate(0,0)"/>
<path d="M0 0 C9.36445952 0.93644595 15.6290933 1.72062791 21.72436523 9.08276367 C26.33542192 15.87961329 30.64841233 22.83391116 34.875 29.875 C35.61381131 31.09982969 36.3529959 32.32443429 37.0925293 33.54882812 C38.62704377 36.0899836 40.15996348 38.63209107 41.69189453 41.17480469 C43.94111672 44.90552846 46.20112221 48.62962273 48.46484375 52.3515625 C48.82664734 52.94645477 49.18845093 53.54134705 49.56121826 54.15426636 C50.28519736 55.34457592 51.00919625 56.53487345 51.73321533 57.72515869 C57.32434798 66.91955706 62.88791077 76.12995792 68.41455078 85.36328125 C72.64560116 92.42501414 76.91382903 99.46401515 81.1875 106.5 C81.90584729 107.68326568 82.62419038 108.86653392 83.3425293 110.04980469 C86.73556296 115.63716496 90.1333702 121.22152812 93.5433197 126.79858398 C95.09519316 129.33745657 96.64470702 131.87776516 98.19400024 134.41821289 C98.92977349 135.62320193 99.66670074 136.82748722 100.40487671 138.03100586 C113.20332065 158.89900083 113.20332065 158.89900083 112 171 C110.05310562 179.12133086 106.80246235 185.79279036 99.75390625 190.5 C93.1197327 194.33453053 88.02538857 195.14715291 80.37597656 195.11352539 C79.50732468 195.11367142 78.63867279 195.11381744 77.74369812 195.1139679 C74.87598157 195.11327191 72.00833019 195.10549415 69.140625 195.09765625 C67.1509403 195.09579096 65.16125515 195.09436758 63.17156982 195.09336853 C57.93714121 195.08955212 52.70274039 195.07972929 47.46832275 195.06866455 C42.12602108 195.05843162 36.78371491 195.05386687 31.44140625 195.04882812 C20.96092333 195.03810625 10.48046833 195.02051652 0 195 C0 185.43 0 175.86 0 166 C-1.65 165.67 -3.3 165.34 -5 165 C-7.16000794 162.91447509 -7.88875035 161.48208183 -8.5625 158.5625 C-7.67792627 154.53277524 -5.33491459 153.33444021 -2 151 C-1.34 151 -0.68 151 0 151 C0.37415221 143.20758725 0.37415221 143.20758725 -2.3671875 136.31640625 C-4.17224063 135.1547004 -4.17224063 135.1547004 -7 134 C-8.50141271 130.99717457 -8.18218615 127.89586918 -8.20874023 124.6003418 C-8.21852402 123.83754913 -8.2283078 123.07475647 -8.23838806 122.28884888 C-8.26835596 119.75898998 -8.2897308 117.22918397 -8.30859375 114.69921875 C-8.31516558 113.83572123 -8.3217374 112.9722237 -8.32850838 112.08255959 C-8.36110761 107.51216902 -8.38555744 102.94180183 -8.4050293 98.37133789 C-8.42284859 94.5871392 -8.45767693 90.80368484 -8.50756836 87.01977539 C-8.56771823 82.45270837 -8.5984976 77.88633198 -8.60820198 73.31888771 C-8.61676663 71.57850932 -8.6356098 69.83814987 -8.6649456 68.09799767 C-8.70382638 65.6604595 -8.70490074 63.22561599 -8.69702148 60.7878418 C-8.71702209 60.07025192 -8.73702271 59.35266205 -8.75762939 58.61332703 C-8.71676724 55.79436908 -8.51515086 53.62488497 -6.68779182 51.4082737 C-2.76317134 48 -2.76317134 48 0 48 C0 32.16 0 16.32 0 0 Z " fill="#F18617" transform="translate(113,15)"/>
<path d="M0 0 C0.33 0 0.66 0 1 0 C1.20625 1.299375 1.4125 2.59875 1.625 3.9375 C3.13757448 10.52652307 6.01956769 15.75762427 11.4765625 19.86328125 C18.01828091 23.90602464 22.51343831 25.12288161 30.22271729 25.14044189 C30.95144633 25.14341302 31.68017538 25.14638414 32.43098712 25.1494453 C34.8735994 25.15811897 37.3161626 25.15963942 39.75878906 25.16113281 C41.50992436 25.16576195 43.26105865 25.17078674 45.01219177 25.17617798 C49.77060439 25.18929521 54.52900289 25.19574567 59.28743076 25.20018864 C62.26114911 25.20312059 65.23486361 25.20722564 68.20858002 25.21169281 C77.51508671 25.22536625 86.8215846 25.23503354 96.12810063 25.2388947 C106.86649223 25.24337455 117.60475649 25.26091973 128.34310937 25.2898953 C136.6464337 25.31152161 144.94972222 25.3215995 153.25307441 25.32293582 C158.21088288 25.32398321 163.16857162 25.32987693 168.1263504 25.34775543 C172.79178174 25.3642524 177.45700355 25.36638371 182.12245369 25.35761642 C183.83163833 25.35684691 185.54083431 25.36117748 187.24999046 25.37107468 C189.59002394 25.3838268 191.92931894 25.37790016 194.26934814 25.36749268 C196.23050505 25.36969252 196.23050505 25.36969252 198.23128128 25.3719368 C205.31460558 24.67287986 211.7996818 21.90859304 217 17 C220.67515234 12.38175301 222.68966259 7.71783597 224 2 C224.33 2 224.66 2 225 2 C225 14.87 225 27.74 225 41 C150.75 41 76.5 41 0 41 C0 27.47 0 13.94 0 0 Z " fill="#FEFCFA" transform="translate(0,184)"/>
<path d="M0 0 C2.18540955 1.55458069 2.18540955 1.55458069 4 4 C4.40001279 6.678742 4.55783512 8.94918221 4.53344727 11.62670898 C4.54206284 12.3897937 4.55067841 13.15287842 4.55955505 13.93908691 C4.58223465 16.45843549 4.57547268 18.97667342 4.56640625 21.49609375 C4.57164127 23.24960155 4.57791731 25.00310652 4.58518982 26.75660706 C4.59559789 30.43105319 4.59102731 34.10511217 4.57641602 37.77954102 C4.55923409 42.48535632 4.58271327 47.18994997 4.61790562 51.89562893 C4.63988154 55.51683117 4.63843762 59.13774123 4.6301403 62.75898933 C4.62932075 64.49371747 4.63618491 66.22846704 4.65091133 67.96313286 C4.66836027 70.39081429 4.65381446 72.81630273 4.63110352 75.24389648 C4.64279572 75.95834427 4.65448792 76.67279205 4.66653442 77.40888977 C4.59363347 81.24470409 4.06664216 82.91411134 1.68711853 85.98085022 C-1 88 -1 88 -4.625 88.0625 C-8.42695851 86.86558713 -9.13798008 86.41607751 -11 83 C-11.29493952 80.37283614 -11.42051576 77.9833847 -11.40405273 75.35742188 C-11.41091599 74.59273087 -11.41777924 73.82803986 -11.42485046 73.04017639 C-11.44313011 70.51617796 -11.43927987 67.99280033 -11.43359375 65.46875 C-11.43815464 63.71284788 -11.44345994 61.95694754 -11.44947815 60.2010498 C-11.45841125 56.5224685 -11.45598348 52.84410428 -11.44604492 49.16552734 C-11.43454836 44.45081596 -11.45477592 39.73685277 -11.48396206 35.02223969 C-11.50230405 31.39682251 -11.50203574 27.77158535 -11.49632454 24.14613342 C-11.49617111 22.40779062 -11.502233 20.66943578 -11.51461601 18.93113708 C-11.52948884 16.50113902 -11.51887802 14.07253253 -11.50170898 11.64257812 C-11.51137695 10.92453506 -11.52104492 10.206492 -11.53100586 9.46669006 C-11.48126722 6.10613564 -11.21113052 4.28495538 -9.18739319 1.55358887 C-5.98529161 -0.72069332 -3.82876593 -0.54696656 0 0 Z " fill="#4B6473" transform="translate(116,64)"/>
<path d="M0 0 C2.5 1.5625 2.5 1.5625 4 4 C4 7.77684879 3.78395245 10.03513544 1.375 13 C-2.11581787 14.46981805 -4.39148956 13.98413921 -8 13 C-10.34572071 10.88128452 -10.89543972 9.5974873 -11.4375 6.5 C-11 4 -11 4 -9.4375 1.6875 C-6.07228821 -0.64226201 -4.01027077 -0.57289582 0 0 Z " fill="#3F4E5B" transform="translate(116,167)"/>
</svg>
