<?xml version="1.0" encoding="UTF-8"?>
<svg id="Layer_1" data-name="Layer 1" xmlns="http://www.w3.org/2000/svg" viewBox="0 0 48.52 48.52">
  <defs>
    <style>
      .cls-1 {
        fill: none;
        stroke: #8390f2;
        stroke-linecap: round;
        stroke-linejoin: round;
        stroke-width: 3px;
      }
    </style>
  </defs>
  <path class="cls-1" d="M24.26,18.74v8.83M24.26,36.41h.02M21.2,7.47L3.04,38.83c-1.01,1.74-1.51,2.61-1.44,3.32.06.62.39,1.19.9,1.56.58.42,1.59.42,3.6.42h36.32c2.01,0,3.02,0,3.6-.42.51-.37.83-.93.9-1.56.07-.71-.43-1.58-1.44-3.32L27.32,7.47c-1-1.73-1.51-2.6-2.16-2.89-.57-.25-1.22-.25-1.79,0-.65.29-1.16,1.16-2.16,2.89Z"/>
</svg>